<?xml version="1.0" encoding="UTF-8" standalone="no"?>
<!-- Created with Inkscape (http://www.inkscape.org/) -->

<svg
   width="202.93723mm"
   height="43.407452mm"
   viewBox="0 0 202.93722 43.407452"
   version="1.1"
   id="svg1"
   sodipodi:docname="logo1.svg"
   xmlns:inkscape="http://www.inkscape.org/namespaces/inkscape"
   xmlns:sodipodi="http://sodipodi.sourceforge.net/DTD/sodipodi-0.dtd"
   xmlns:xlink="http://www.w3.org/1999/xlink"
   xmlns="http://www.w3.org/2000/svg"
   xmlns:svg="http://www.w3.org/2000/svg">
  <sodipodi:namedview
     id="namedview1"
     pagecolor="#ffffff"
     bordercolor="#000000"
     borderopacity="0.25"
     inkscape:showpageshadow="2"
     inkscape:pageopacity="0.0"
     inkscape:pagecheckerboard="0"
     inkscape:deskcolor="#d1d1d1"
     inkscape:document-units="mm">
    <inkscape:page
       x="0"
       y="0"
       width="202.93723"
       height="43.407452"
       id="page1"
       margin="0"
       bleed="0" />
  </sodipodi:namedview>
  <defs
     id="defs1">
    <linearGradient
       id="linearGradient3">
      <stop
         style="stop-color:#fd00ff;stop-opacity:1;"
         offset="0"
         id="stop3" />
      <stop
         style="stop-color:#9000ff;stop-opacity:1;"
         offset="1"
         id="stop4" />
    </linearGradient>
    <linearGradient
       xlink:href="#linearGradient3"
       id="linearGradient4"
       x1="11.936897"
       y1="9.4118595"
       x2="38.037716"
       y2="40.517605"
       gradientUnits="userSpaceOnUse" />
  </defs>
  <g
     id="layer1"
     transform="translate(-3.2158594,-3.2610035)">
    <rect
       style="fill:none;stroke:url(#linearGradient4);stroke-width:3.5;stroke-linecap:round;stroke-dasharray:none;stroke-opacity:1"
       id="rect1"
       width="40.042885"
       height="39.907452"
       x="4.9658594"
       y="5.0110035"
       rx="2.8821521"
       ry="2.7635574" />
    <path
       style="fill:none;stroke:#df00ff;stroke-width:3.49999;stroke-linecap:round;stroke-dasharray:none;stroke-opacity:1"
       d="m 13.362676,35.709045 c 0,0 4.11693,-33.4907845 6.275041,-18.14796 2.889227,20.540601 15.484453,-4.42413 15.484453,-4.42413 0,0 0.04514,-0.09029 -1.986344,22.978388"
       id="path4" />
    <path
       style="font-size:35.2778px;font-family:'Atrea Forza';-inkscape-font-specification:'Atrea Forza';fill:#df00ff;stroke-width:0.3;stroke-linecap:round"
       d="m 56.078188,39.932437 c -0.03528,0.03528 -0.07056,0.07055 -0.07056,0.03528 0,0 0.03528,0 0.07056,-0.03528 z m 6.596949,-11.006674 c -0.211667,0.176389 -0.423334,0.352778 -0.599723,0.564445 -0.246944,0.211666 -0.423333,0.423333 -0.564445,0.705556 -0.07056,0.176389 -0.03528,0.141111 0.105834,-0.105834 0.3175,-0.3175 0.423333,-0.423333 0.388056,-0.3175 -0.176389,0.246945 -0.352778,0.458611 -0.564445,0.635 l -1.199445,1.234723 c -0.317501,0.317501 -0.564445,0.564445 -0.81139,0.776112 -0.211667,0.211667 -0.352778,0.388056 -0.493889,0.493889 -0.141111,0.105834 -0.282223,0.246945 -0.388056,0.352778 -0.176389,0.141111 -0.3175,0.282223 -0.423334,0.458612 -0.105833,0.141111 -0.105833,0.246944 -0.03528,0.246944 v 0.03528 h -0.176389 c 0,0.07056 -0.03528,0.105834 -0.07056,0.105834 -0.07056,0.03528 -0.105833,0.105833 -0.176389,0.176389 -0.07056,0.03528 -0.105833,0.03528 -0.105833,-0.03528 -0.07056,0 -0.105834,0.07055 -0.105834,0.211667 -0.03528,0.03528 -0.07055,0.07055 -0.105833,0.07055 l -0.141111,0.07056 v -0.07056 c 0.03528,-0.07055 0.07055,-0.07055 0.07055,-0.07055 h -0.211667 c -0.03528,0 -0.03528,-0.03528 -0.03528,-0.03528 -0.105834,0.141111 -0.141112,0.246944 -0.105834,0.282222 -0.03528,0.07056 -0.03528,0.141111 -0.07055,0.211667 0,0.03528 -0.03528,0 -0.105834,-0.105833 l -0.03528,0.07056 c -0.105833,0.07056 -0.141111,0.105834 -0.176389,0.03528 l -0.246944,0.352778 0.176389,-0.03528 c 0,0.211667 -0.105834,0.352778 -0.282223,0.352778 v -0.352778 l -0.105833,0.352778 c -0.03528,-0.03528 -0.07056,0 -0.105833,0 -0.03528,0.03528 -0.03528,0.07056 -0.03528,0.105834 v 0.03528 c -0.141111,0.317501 -0.352778,0.635001 -0.564445,0.881945 -0.141111,0.105834 -0.282223,0.246945 -0.423334,0.388056 -0.105833,0.141111 -0.211667,0.246945 -0.282222,0.3175 l -0.282223,0.282223 c -0.07055,0.03528 -0.141111,0.07056 -0.176389,0.105833 -0.03528,0.03528 -0.07055,0.07056 -0.105833,0.07056 h -0.07056 v 0.07055 c -0.07055,0.03528 -0.105833,0 -0.07055,-0.105833 0,-0.105833 0.176389,-0.246945 0.493889,-0.423334 0.529167,-0.564444 0.846667,-0.917222 0.987778,-1.093611 0.105834,-0.105834 0.17639,-0.246945 0.282223,-0.352778 -0.03528,0.03528 -0.07056,0 -0.07056,-0.07056 v -0.03528 c 0.03528,0 0.03528,-0.03528 0.07056,-0.03528 0.07056,0.07056 0.105833,0.03528 0.105833,0 0,-0.07055 -0.07055,-0.141111 -0.246944,-0.211666 L 55.72541,35.3816 c 0.07056,-0.07055 0.141111,-0.105833 0.211667,-0.141111 0.176389,-0.141111 0.3175,-0.246944 0.458611,-0.423333 0.3175,-0.317501 0.670278,-0.635001 1.058334,-0.917223 l 1.164168,-1.270001 c 0.105833,-0.105834 0.211666,-0.176389 0.352778,-0.246945 0.03528,0 0.03528,0.03528 0.03528,0.141111 v 0.211667 l 0.07056,-0.282222 c 0,-0.141111 0.03528,-0.282223 0.105833,-0.423334 l 0.105834,-0.105833 v 0.07056 l -0.03528,0.105834 c -0.03528,0.105833 -0.105833,0.211667 -0.141111,0.3175 l 0.07055,-0.07056 c 0.03528,0.03528 0.105834,0 0.176389,-0.03528 0.07056,-0.07056 0.141112,-0.211667 0.105834,-0.317501 0.458611,-0.564444 0.917223,-1.058334 1.44639,-1.552223 0,-0.105833 0.07055,-0.176389 0.211667,-0.282222 0.141111,-0.07056 0.246944,-0.176389 0.3175,-0.3175 0,-0.07056 0.105833,-0.176389 0.282222,-0.352778 0.211667,-0.141112 0.388056,-0.282223 0.599723,-0.458612 0.105833,-0.141111 0.211667,-0.246945 0.352778,-0.352778 0.176389,-0.105833 0.282222,-0.211667 0.282222,-0.282222 0.03528,-0.07056 0.105834,-0.105834 0.176389,-0.105834 0.07056,0 0.07056,0 0.03528,0.03528 v 0.141111 c 0,0.03528 -0.03528,0.03528 -0.176389,0.03528 -0.07056,0.176389 -0.176389,0.3175 -0.3175,0.423334 z m 14.040565,-1.905002 c 0.07056,-0.07055 0.141111,-0.07055 0.246944,-0.07055 0.07056,0 0.105834,0.07055 0.105834,0.176389 0,0.105833 -0.03528,0.141111 -0.105834,0.07056 -0.105833,-0.03528 -0.176389,0 -0.246944,0.03528 z m 10.230562,3.21028 c -0.141111,0.141112 -0.493889,0.740834 -0.529167,0.917223 -0.03528,0.141111 0,0.141111 0.105834,-0.03528 0.105833,-0.211666 0.141111,-0.3175 0.141111,-0.211666 -0.07056,0.141111 -0.141111,0.3175 -0.211667,0.458611 -0.423334,0.705556 -0.846667,1.44639 -1.375834,2.08139 -0.105834,0.105834 -0.141111,0.246945 -0.176389,0.352778 -0.07056,0.141112 -0.07056,0.211667 0,0.176389 l -0.07056,0.03528 -0.105833,0.211667 c -0.03528,0.07056 -0.07056,0.07056 -0.07056,0.03528 l -0.07055,0.03528 v 0.07055 l -0.105834,0.105834 -0.03528,-0.03528 c 0,-0.03528 0.03528,-0.07056 0.03528,-0.07056 h -0.176389 c 0,0.03528 0,0.105834 -0.03528,0.141111 0,0.03528 -0.03528,0.105834 0,0.141112 0.03528,0.03528 0.03528,0.07056 0.03528,0.105833 l -0.03528,-0.03528 v 0.07056 H 84.12404 l -0.176389,0.282222 0.141111,-0.07056 c 0.03528,0.141111 0,0.246944 -0.141111,0.246944 -0.03528,-0.176389 -0.03528,-0.141111 -0.03528,0.03528 v 0.07056 l -0.246944,0.705556 c -0.141111,0.105833 -0.246945,0.282222 -0.352778,0.458611 l -0.105834,0.211667 c 0,0.07055 -0.03528,0.105833 -0.07055,0.141111 l -0.105834,0.03528 c -0.07055,0.07055 -0.105833,0.105833 -0.105833,0.03528 0,-0.07056 0.105833,-0.176389 0.282222,-0.388056 0.246945,-0.423334 0.388056,-0.670278 0.423334,-0.81139 0.07056,-0.105833 0.07056,-0.176389 0.03528,-0.211666 l 0.07055,-0.105834 c 0.07056,0 0.105834,-0.03528 0.07056,-0.03528 -0.07056,-0.03528 -0.105833,-0.07055 -0.176389,-0.105833 -0.03528,-0.03528 0,-0.07056 0.03528,-0.07056 0.07055,-0.03528 0.105833,-0.105833 0.105833,-0.141111 0.105834,-0.07056 0.211667,-0.176389 0.246945,-0.282222 0.141111,-0.282223 0.3175,-0.529167 0.529167,-0.776112 l 0.529167,-0.846667 0.176389,-0.211667 c 0.03528,-0.03528 0.03528,0 0.03528,0.03528 v -0.3175 c 0,-0.03528 0.03528,-0.07056 0.07055,-0.105834 v 0.105834 c -0.03528,0.211666 -0.03528,0.282222 0,0.176389 0.105834,0 0.176389,-0.07056 0.176389,-0.282223 0.03528,-0.07055 0.07056,-0.176389 0.105834,-0.282222 0.141111,-0.282223 0.282222,-0.564445 0.458611,-0.81139 0,-0.105833 0.07056,-0.176389 0.141111,-0.246944 0.105834,-0.105834 0.141111,-0.211667 0.105834,-0.282223 0,-0.03528 0.03528,-0.105833 0.176389,-0.211666 0.105833,-0.105834 0.176389,-0.246945 0.282222,-0.352778 0.03528,-0.105834 0.07056,-0.211667 0.176389,-0.317501 0.07056,-0.105833 0.07056,-0.176389 0.03528,-0.211666 0.03528,-0.03528 0.07055,-0.07056 0.141111,-0.07056 0.03528,-0.03528 0.03528,0 0,0.07056 -0.105833,0.176389 -0.141111,0.282222 -0.211667,0.388055 z m 0.03528,-14.216954 c 0.105833,-0.246944 0.246945,-0.352778 0.388056,-0.352778 0.211667,0 0.246944,-0.03528 0.176389,-0.105833 0.03528,-0.105833 0.105833,-0.176389 0.176389,-0.176389 0.03528,0 0.07055,0 0.07055,-0.03528 0.03528,-0.03528 0.03528,-0.03528 0.03528,-0.07056 0.07056,-0.105834 0.141111,-0.141112 0.176389,-0.141112 0.141112,0 0.282223,-0.07056 0.352778,-0.176389 0.03528,-0.03528 0.211667,-0.141111 0.458612,-0.352778 0.282222,-0.211667 0.564445,-0.423333 0.881945,-0.599722 0.3175,-0.211667 0.705556,-0.458612 1.164167,-0.776112 v 0.07056 c 0,0.03528 -0.03528,0.105833 -0.141111,0.176389 -0.03528,0.03528 -0.246945,0.211666 -0.670278,0.493889 -0.81139,0.599722 -1.693335,1.164167 -2.540002,1.728612 -0.352778,0.246945 -0.529167,0.352778 -0.529167,0.3175 z m 6.314727,2.081391 c -0.07056,0.105833 -0.105834,0.211666 -0.176389,0.3175 l -0.246945,0.423333 c -0.141111,0.141112 -0.211667,0.317501 -0.246945,0.49389 -0.03528,0.141111 0,0.141111 0.07056,0 0.105833,-0.246945 0.176389,-0.317501 0.141111,-0.246945 -0.03528,0.176389 -0.105833,0.3175 -0.211667,0.458611 -0.423333,0.740834 -0.705556,1.234724 -0.881945,1.481668 -0.141111,0.211667 -0.3175,0.423334 -0.493889,0.599723 -0.07056,0.105833 -0.141111,0.246944 -0.176389,0.388056 -0.03528,0.141111 -0.03528,0.176389 0,0.141111 l -0.07056,0.07055 c 0,0.07056 -0.07055,0.105834 -0.105833,0.176389 -0.03528,0.07056 -0.03528,0.07056 -0.03528,0.03528 l -0.07055,0.07056 v 0.03528 l -0.105834,0.141111 c -0.03528,-0.03528 -0.03528,-0.03528 -0.03528,-0.07056 0,-0.03528 0,-0.03528 0.03528,-0.07055 h -0.176389 c 0,0.07055 0,0.105833 -0.03528,0.176389 -0.03528,0.03528 -0.03528,0.07055 -0.03528,0.141111 l 0.07055,0.07056 c 0,0.03528 -0.03528,0 -0.07055,-0.03528 v 0.07055 c 0,0 -0.03528,0.03528 -0.07056,0.03528 l -0.03528,-0.03528 -0.176389,0.282223 0.105834,-0.07056 c 0.03528,0.176389 0,0.246945 -0.105834,0.246945 -0.03528,-0.141112 -0.07055,-0.141112 -0.07055,0.07055 v 0.03528 l -0.211667,0.705556 c -0.141111,0.141111 -0.282223,0.282223 -0.352778,0.458612 l -0.105834,0.246944 c -0.03528,0.03528 -0.03528,0.07056 -0.07055,0.105834 l -0.105834,0.07056 c -0.105833,0.07056 -0.141111,0.07056 -0.141111,0 0,-0.03528 0.105834,-0.176389 0.3175,-0.352778 0.211667,-0.423334 0.352778,-0.705556 0.423334,-0.811389 0.07056,-0.105834 0.07056,-0.211667 0.03528,-0.246945 l 0.03528,-0.105833 c 0.105833,0 0.105833,0 0.105833,-0.03528 -0.07056,-0.03528 -0.141111,-0.07056 -0.211667,-0.07056 0,-0.03528 0.03528,-0.07055 0.07056,-0.105833 0.03528,-0.03528 0.07055,-0.07056 0.105833,-0.141111 0.105834,-0.07056 0.176389,-0.176389 0.246945,-0.282223 0.141111,-0.282222 0.3175,-0.529167 0.493889,-0.740834 l 0.529167,-0.881945 c 0.105833,-0.105833 0.211667,-0.176389 0.246945,-0.176389 v -0.282222 c 0,-0.03528 0,-0.105833 0.03528,-0.105833 v 0.105833 c -0.03528,0.176389 -0.03528,0.246945 0,0.176389 0.141112,0 0.176389,-0.105833 0.176389,-0.282222 0.03528,-0.105834 0.105834,-0.211667 0.105834,-0.317501 0.141111,-0.282222 0.3175,-0.529167 0.493889,-0.811389 0,-0.105834 0.03528,-0.176389 0.141111,-0.246945 0.07056,-0.105833 0.105834,-0.176389 0.07056,-0.246944 0,-0.03528 0.07055,-0.141112 0.176389,-0.246945 0.105833,-0.105833 0.211667,-0.211667 0.282222,-0.352778 0.03528,-0.105833 0.105834,-0.211667 0.176389,-0.3175 0.07056,-0.105834 0.105834,-0.141111 0.07056,-0.211667 0.03528,-0.03528 0.07056,-0.03528 0.105833,-0.07056 0.03528,-0.03528 0.03528,0 0,0.07056 v 0.07056 z m -0.141112,-6.526394 c 0.388056,-0.282222 0.740834,-0.529167 1.023057,-0.705556 0.141111,-0.105833 0.3175,-0.211666 0.493889,-0.282222 0.07055,0 -0.03528,0.105833 -0.352778,0.352778 -0.246945,0.105833 -0.493889,0.246945 -0.705556,0.388056 -0.246945,0.211667 -0.529167,0.388056 -0.81139,0.599722 -0.246944,0.176389 -0.493889,0.317501 -0.635,0.458612 -0.105834,0.07056 -0.211667,0.105833 -0.352778,0.176389 -0.03528,0 0.07055,-0.105834 0.352778,-0.3175 0.246944,-0.176389 0.564445,-0.423334 0.987778,-0.670279 z M 57.842078,34.076322 c 0,-0.03528 0.03528,-0.07056 0.07056,-0.105834 -0.07056,0.07056 -0.105834,0.105834 -0.07056,0.105834 z m 28.151686,-7.337783 -0.705556,0.987778 -0.458612,0.776112 c -0.07055,0.105833 -0.141111,0.211667 -0.176389,0.3175 -0.105833,0.211667 -0.246944,0.388056 -0.388056,0.564445 -0.105833,0.211667 -0.211666,0.388056 -0.352778,0.564445 -0.07055,0.141111 -0.141111,0.282222 -0.176389,0.423334 l -0.529167,0.917222 c -0.176389,0.246945 -0.3175,0.458612 -0.423333,0.740834 -0.141112,0.246945 -0.282223,0.529167 -0.458612,0.776112 -0.458611,0.776111 -0.917223,1.622779 -1.305278,2.434168 -0.246945,0.423334 -0.458612,0.881945 -0.635001,1.340557 -0.246944,0.493889 -0.423333,0.987778 -0.564445,1.516945 -0.141111,0.423334 -0.211666,0.846667 -0.211666,1.305279 -0.03528,0.3175 0.176389,0.599722 0.458611,0.705556 0.03528,0 0.105833,0.07055 0.141111,0.211667 -0.03528,0.282222 0.07056,0.529167 0.282223,0.705556 0.141111,0.211666 0.388055,0.352778 0.635,0.388055 0.105833,0 0.176389,0.03528 0.176389,0.141112 v 0.03528 h 0.03528 c -0.03528,0.141112 0.03528,0.211667 0.176389,0.246945 0.176389,0.03528 0.352778,0.07056 0.493889,0.03528 0.282222,0 0.529167,-0.03528 0.776112,-0.105834 0.07055,0 0.141111,-0.03528 0.176389,-0.03528 0.105833,-0.07056 0.176389,-0.105834 0.246944,-0.141112 0.317501,-0.141111 0.635001,-0.282222 0.917223,-0.493889 0.423334,-0.246944 0.881945,-0.493889 1.340557,-0.811389 0.458611,-0.282223 0.881945,-0.564445 1.27,-0.846667 0.246945,-0.211667 0.529167,-0.388056 0.740834,-0.599723 l 0.246945,-0.246945 c 0.141111,0 0.211667,-0.03528 0.211667,-0.105833 0,-0.07056 0.03528,-0.141111 0.07055,-0.141111 0.03528,0 0.105834,-0.03528 0.176389,-0.176389 0,-0.105834 0.105834,-0.246945 0.352778,-0.458612 0.176389,-0.176389 0.317501,-0.282222 0.352778,-0.3175 0.03528,-0.07056 0.03528,-0.105833 0,-0.176389 -0.03528,-0.03528 -0.07055,-0.07056 -0.07055,-0.141111 0,-0.03528 0.03528,-0.07056 0.07055,-0.105834 0.03528,-0.105833 0,-0.176389 -0.07055,-0.246944 l -0.03528,-0.03528 c 0,-0.03528 0.03528,-0.03528 0.03528,-0.07056 0.03528,-0.03528 0.07055,-0.105833 0.07055,-0.176389 0.07056,-0.03528 0.03528,-0.105833 -0.141111,-0.211666 -0.105833,-0.03528 -0.176389,-0.141112 -0.141111,-0.246945 0.105833,-0.07056 0.105833,-0.141111 0,-0.211667 -0.105833,0 -0.07056,-0.07055 0.03528,-0.176389 0.07055,-0.105833 0.03528,-0.176389 -0.176389,-0.3175 -0.176389,-0.105833 -0.352778,-0.105833 -0.458612,0 -0.03528,0.07056 -0.07055,0.03528 -0.105833,-0.03528 0,-0.105833 -0.07056,-0.176389 -0.246945,-0.105833 -0.176389,0.03528 -0.352778,0.141111 -0.493889,0.282222 -0.211667,0.141111 -0.458611,0.282223 -0.670278,0.388056 -0.3175,0.176389 -0.458612,0.211667 -0.493889,0.176389 0.3175,-0.423334 0.599722,-0.881945 0.811389,-1.340556 0.493889,-0.881945 1.199445,-2.081391 2.116668,-3.633614 0.105834,-0.105833 0.211667,-0.3175 0.352778,-0.564445 0.176389,-0.282222 0.3175,-0.529167 0.529167,-0.776111 l 0.3175,-0.635001 c 0.105834,-0.176389 0.176389,-0.282222 0.211667,-0.282222 0.03528,-0.105834 0.07056,-0.176389 0.07056,-0.282223 0.03528,-0.105833 0,-0.176389 -0.07056,-0.105833 v -0.246945 c 0.211667,-0.282222 0.3175,-0.3175 0.282223,-0.176389 -0.03528,0.105834 -0.03528,0.141111 0,0.105834 0.176389,-0.176389 0.3175,-0.423334 0.388055,-0.670279 0.141112,-0.388055 0.317501,-0.776111 0.529167,-1.128889 0.07056,-0.176389 0.211667,-0.352778 0.352778,-0.458612 0.141112,-0.141111 0.246945,-0.246944 0.246945,-0.282222 0.388056,-0.740834 0.881945,-1.658057 1.516946,-2.786946 2.046112,-3.492503 4.021669,-7.090838 5.750281,-10.75973 0.176389,-0.246944 0.211667,-0.564445 0.105834,-0.881945 -0.105834,-0.282222 -0.282223,-0.529167 -0.49389,-0.740834 L 98.270439,9.6993609 C 97.988216,9.5229719 97.741272,9.3465829 97.564883,9.1701938 l -0.17639,0.1763891 V 9.1701938 c -0.105833,0 -0.141111,-0.070556 -0.07055,-0.2822224 0,-0.176389 -0.03528,-0.2469446 -0.176389,-0.2822224 C 97.106274,8.570471 97.106274,8.535193 97.106274,8.4999156 96.929885,8.3235266 96.718218,8.252971 96.506551,8.252971 96.400718,8.3588044 96.330162,8.323527 96.330162,8.1471376 c 0,-0.035278 -0.03528,-0.070556 -0.105833,-0.1058334 -0.07056,0 -0.141111,-0.035278 -0.211667,-0.070556 -0.141111,0 -0.282222,0.035278 -0.388056,0.1058334 -0.246944,0.1411112 -0.493889,0.2822224 -0.776111,0.352778 -0.423334,0.176389 -0.81139,0.3880558 -1.199445,0.6350004 -1.12889,0.7055561 -2.222502,1.44639 -3.280836,2.25778 -0.493889,0.352778 -0.740834,0.529167 -0.811389,0.564445 -0.03528,0.105833 -0.141112,0.211666 -0.246945,0.246944 -0.105833,0.03528 -0.141111,0.07056 -0.141111,0.105834 l -0.352778,0.246944 c -0.211667,0.176389 -0.635001,0.529167 -1.234723,1.023056 -0.599723,0.458612 -1.305279,1.058334 -2.046113,1.728613 -1.693334,1.44639 -3.351391,2.928057 -5.044725,4.374447 1.340556,-1.940279 2.751668,-3.951114 3.598335,-6.173615 0.176389,-0.423334 0.211667,-0.917223 0.105834,-1.375834 -0.07056,-0.246945 -0.105834,-0.49389 -0.03528,-0.776112 0.07056,-0.3175 0,-0.529167 -0.211667,-0.670278 -0.07055,-0.03528 -0.141111,-0.105834 -0.211667,-0.176389 -0.105833,-0.07056 -0.211666,-0.141112 -0.282222,-0.282223 -0.141111,-0.07055 -0.246945,-0.2116669 -0.3175,-0.3527781 C 83.030428,9.6640831 82.924595,9.5935275 82.854039,9.5935275 82.748206,9.6993609 82.67765,9.6993609 82.67765,9.5229719 l -0.352778,-0.176389 c -0.03528,-0.035278 -0.105833,-0.035278 -0.176389,-0.070556 -0.105833,-0.035278 -0.176389,-0.070556 -0.211667,-0.1411113 -0.03528,-0.035278 -0.07055,-0.070556 -0.03528,-0.070556 0.105833,0 0.105833,0.035278 0.07055,0 -0.03528,0 -0.03528,0 -0.07055,0 -0.03528,-0.035278 -0.141112,-0.070556 -0.246945,-0.1058334 -0.176389,-0.070556 -0.352778,-0.1058334 -0.529167,-0.070556 l -0.105833,0.2822224 -0.176389,0.1763891 0.105833,-0.3527781 c 0.07056,-0.176389 0.03528,-0.2822224 -0.176389,-0.2822224 -0.105833,0.035278 -0.246945,0.070556 -0.352778,0.1411112 -0.246945,0.1411112 -0.493889,0.3175002 -0.740834,0.4938893 -0.141111,0.1411112 -0.352778,0.2469446 -0.599722,0.4233336 -0.458612,0.2822227 -0.846668,0.6350007 -1.270001,0.9877787 -2.25778,1.975557 -4.409726,4.092225 -6.526394,6.208893 -5.29167,5.29167 -10.512784,10.653896 -15.698621,16.0514 -0.599723,0.564444 -0.917223,0.881945 -0.917223,0.987778 -0.03528,0.07056 -0.105834,0.105834 -0.176389,0.141111 -0.105834,0.07056 -0.246945,0.176389 -0.352778,0.282223 l -1.093612,1.164167 C 52.62096,36.0166 52.30346,36.3341 52.127071,36.545767 c -0.176389,0.246944 -0.352778,0.423333 -0.423333,0.529167 -0.105834,0.105833 -0.176389,0.211667 -0.246945,0.3175 -0.07056,0.141111 -0.141111,0.282222 -0.211667,0.458611 -0.105833,0.211667 -0.176389,0.388056 -0.211667,0.458612 -0.03528,0.176389 -0.03528,0.3175 0.03528,0.458611 0.03528,0.105834 0.07056,0.176389 0.141111,0.246945 0.07056,0.105833 0.141112,0.176389 0.176389,0.211667 0.03528,0.07055 0.105834,0.105833 0.141112,0.211667 0,0.03528 -0.03528,0.141111 -0.141112,0.246944 0,0.105834 0,0.176389 0.03528,0.176389 0.07056,-0.07055 0.141111,-0.141111 0.141111,-0.176389 0,-0.07056 0.07056,-0.105833 0.211667,-0.105833 0.105834,0 0.105834,0.03528 -0.07055,0.176389 0,0.07055 -0.03528,0.105833 -0.141112,0.105833 l -0.07055,0.07056 v 0.105833 c 0.141111,0.07056 0.246944,0.105834 0.282222,0.07056 0.105834,-0.07056 0.176389,0 0.176389,0.141111 -0.105833,0.211667 -0.105833,0.3175 0.07056,0.3175 0.03528,0 0.03528,0.03528 0.03528,0.105834 0,0.03528 0.07055,0.105833 0.141111,0.176389 l 0.3175,0.211666 c 0.07056,0.105834 0.176389,0.141112 0.282222,0.211667 0.105834,0.07056 0.141112,0.07056 0.141112,0.03528 0.211666,0.07056 0.529167,0.176389 0.881945,0.3175 0.3175,0.141111 0.670278,0.07056 0.846667,-0.211667 0,-0.141111 0.07055,-0.211666 0.176389,-0.211666 0.211667,-0.282223 0.458611,-0.529167 0.740834,-0.740834 0.211667,-0.105834 0.388056,-0.282223 0.529167,-0.493889 0.07055,-0.07056 0.07055,-0.07056 -0.03528,-0.03528 l 0.282222,-0.423334 c 0.105834,-0.03528 0.176389,-0.176389 0.176389,-0.282222 l 0.987779,-0.881945 c 3.104446,-3.316114 6.455837,-6.914449 10.054173,-10.75973 3.598336,-3.84528 7.725839,-8.149172 12.382509,-12.84112 l -5.044726,8.784173 c -0.176389,0.3175 -0.246945,0.670278 -0.176389,1.023056 0.07056,0.282223 0.141111,0.564445 0.246945,0.846668 0.105833,0.03528 0.211666,0.176389 0.282222,0.458611 0.211667,0.176389 0.3175,0.282222 0.352778,0.282222 0.03528,0 0.105833,0.03528 0.141111,0.105834 0.07056,0.07055 0.07056,0.176389 0.03528,0.246944 0.07056,0.176389 0.141111,0.282223 0.246945,0.282223 -0.07056,0 0,0.07055 0.141111,0.246944 0.07055,0.141112 0.141111,0.282223 0.282222,0.352778 0.141111,0.105834 0.211667,0.105834 0.246945,0.03528 0.07056,-0.07055 0.141111,-0.105833 0.176389,-0.105833 v 0.388056 c 0.07056,0.07055 0.176389,0.141111 0.282222,0.141111 0.07056,0 0.141111,-0.03528 0.141111,-0.141111 l 0.176389,0.141111 c 0.211667,0.176389 0.352778,0.141111 0.458612,-0.141111 0.105833,-0.176389 0.176389,-0.282223 0.211667,-0.282223 2.681113,-2.575279 4.833058,-4.65667 6.42056,-6.208893 1.622778,-1.552223 2.998613,-2.822224 4.056947,-3.810002 1.093612,-0.952501 2.010834,-1.728613 2.786946,-2.328335 0.776112,-0.599723 1.622779,-1.234723 2.540002,-1.940279 h 0.07055 c 0.07056,0 0.07056,0.07055 0.03528,0.176389 -0.493889,0.740833 -0.917223,1.658056 -1.305278,2.469446 -0.246945,0.423333 -0.423334,0.776111 -0.599723,0.987778 z M 82.324872,9.4876941 82.219039,9.3465829 l -0.03528,0.070556 c 0,0.070556 0.03528,0.070556 0.03528,0.070556 z m 9.031117,3.3513909 c 0.07056,-0.03528 0.141112,-0.07056 0.176389,-0.141111 0.141112,-0.07056 0.105834,-0.07056 -0.03528,0 z m 12.170851,17.674179 c 0.21167,-0.211667 0.35278,-0.352778 0.45861,-0.423334 0.10583,-0.07055 0.0706,0 -0.0705,0.176389 l -2.43417,2.610557 c -0.14111,0.07056 -0.17639,0.105834 -0.0706,0.105834 l 0.0706,0.03528 -1.19945,1.516945 c -0.17639,0.141111 -0.28222,0.282223 -0.388053,0.388056 -0.105834,0.141111 -0.176389,0.246945 -0.246945,0.352778 -0.105833,0.141111 -0.176389,0.282222 -0.246945,0.423334 -0.07055,0 0,-0.176389 0.211667,-0.458612 0.211667,-0.3175 0.493886,-0.705556 0.811386,-1.128889 0.3175,-0.458612 0.67028,-0.917223 0.98778,-1.375835 0.28222,-0.352778 0.56445,-0.705556 0.88195,-1.023056 0.21166,-0.176389 0.38805,-0.352778 0.56444,-0.529167 z m -0.0353,7.937505 c 0.21167,-0.105833 0.38806,-0.176389 0.59972,-0.246945 0.45862,-0.176389 0.91723,-0.352778 1.41112,-0.564444 l 1.51694,-0.564445 c 0.10584,-0.03528 0.21167,-0.07056 0.35278,-0.105834 0.0706,-0.03528 0.14111,-0.07055 0.21167,-0.07055 -0.38806,0.176389 -0.70556,0.352778 -0.9525,0.458611 -0.28223,0.105834 -0.56445,0.246945 -0.81139,0.388056 -0.21167,0.105833 -0.42334,0.176389 -0.635,0.246945 l -1.16417,0.423333 z m 5.71501,-8.643061 -1.05834,0.564445 c -0.3175,0.176389 -0.74083,0.388055 -1.23472,0.635 -0.38806,0.246945 -0.81139,0.423334 -1.23472,0.599723 l -0.10584,0.03528 h -0.0706 c -0.0353,0 -0.0706,0.03528 -0.10584,0.03528 -0.0353,0.03528 -0.0705,0.03528 -0.10583,0.03528 -0.81139,0.388056 -1.62278,0.670278 -2.50472,0.917223 0.3175,-0.3175 0.67027,-0.599723 0.98777,-0.881945 0.3175,-0.246945 0.56445,-0.423334 0.70556,-0.564445 l 0.0706,0.141111 0.3175,-0.423333 0.98778,-0.81139 v 0.07056 l 0.35277,-0.282223 c 0.0706,-0.07055 0.17639,-0.141111 0.28223,-0.141111 0.14111,-0.105833 0.24694,-0.176389 0.42333,-0.282222 0.17639,-0.105834 0.35278,-0.211667 0.49389,-0.352778 0.14111,-0.07056 0.3175,-0.141112 0.45861,-0.176389 h -0.0353 l 0.17639,-0.03528 v 0.03528 c 0.17639,-0.105834 0.35278,-0.176389 0.56445,-0.211667 0.0353,0 0.0706,0 0.10583,-0.03528 0,0 0.0353,-0.03528 0.0705,-0.03528 0,0 0.0353,0 0.10584,-0.03528 l 1.62278,-0.423333 h 0.56444 c 0.10584,0.03528 0.14111,0.176389 0.14111,0.423333 l -0.0705,-0.07055 -2.25778,1.270001 z m -1.65806,2.116668 c 0.70556,-0.246945 1.23472,-0.458612 1.48167,-0.599723 0.14111,-0.07056 0.3175,-0.141111 0.45861,-0.176389 -0.17639,0.105834 -0.38806,0.211667 -0.59972,0.3175 -0.56445,0.211667 -1.16417,0.458612 -1.69334,0.740834 -0.24694,0.105834 -0.35278,0.176389 -0.35278,0.211667 -0.0705,0 -0.0705,-0.07056 0.0706,-0.176389 0.17639,-0.105833 0.38805,-0.211667 0.635,-0.282222 z m 3.45722,-1.234723 c 0.0353,-0.07056 0.0706,-0.07056 0.10584,-0.07056 h 0.0705 l -0.0705,0.176389 z m 1.27,2.681113 c 0.0353,0 0.0706,-0.03528 0.0706,-0.07056 l 0.21167,-0.141111 v 0.03528 c -0.67028,0.458611 -1.34056,0.846667 -2.08139,1.199445 -2.18723,1.12889 -6.91445,3.351391 -9.45445,3.351391 -0.98778,-0.07056 -1.34056,-0.458611 -1.02306,-1.199445 0.56444,-1.093612 1.23472,-2.151946 2.01083,-3.104447 h 0.0353 l 0.49389,0.352778 c 0.0353,0 0.10584,0 0.14111,0.03528 h 0.14111 c 0.0353,0.03528 0.0706,0.07056 0.10584,0.07056 0.0353,-0.07056 0.0705,-0.07056 0.0705,0.07056 0.0353,0 0.0706,0 0.10584,0.03528 0.17639,0.03528 0.21166,0.03528 0.0705,0 -0.0705,-0.03528 0.0706,-0.03528 0.38806,0 0.59972,0.141111 0.70555,0.176389 0.28222,0.141111 -0.59972,-0.141111 -0.59972,-0.07056 0.0706,0.141112 0.56444,0 0.81139,-0.03528 0.74083,-0.141112 h 0.10583 c 0.10584,-0.03528 0.17639,-0.03528 0.24695,-0.07056 0.49389,-0.03528 0.91722,-0.07056 1.30528,-0.105834 0.59972,-0.141111 1.16416,-0.352778 1.69333,-0.635 l 1.76389,-0.635001 c 1.30528,-0.564444 2.43417,-1.481667 3.31611,-2.610557 0.24695,-0.388056 0.21167,-1.058334 -0.14111,-2.08139 -0.49389,-2.540002 -2.43417,-3.316113 -4.72722,-3.316113 -4.51556,0 -9.419175,4.233336 -11.853344,7.937505 -0.388055,0.493889 -0.776111,1.516945 -0.881945,2.116668 -0.07055,0.458611 -0.07055,0.917223 -0.03528,1.340556 0.211666,1.587501 3.21028,4.162781 4.833059,4.727226 0.0353,0.07055 0.0706,0.141111 0.10584,0.176389 0.0353,0.105833 0.17638,0.176389 0.28222,0.176389 0.10583,0.211667 1.37583,0.493889 1.69333,0.493889 0.24695,0 0.45861,-0.03528 0.67028,-0.105833 0.45861,-0.141112 0.88195,-0.246945 1.19945,-0.352778 1.69333,-0.564445 3.28083,-1.340557 4.79778,-2.293057 0.45861,-0.246945 0.98778,-0.599723 1.55222,-0.987779 1.02306,-0.599723 2.01084,-1.340556 2.89278,-2.116668 0.24694,-0.176389 0.45861,-0.388056 0.635,-0.635 v -0.81139 c 0.0706,-0.105833 0.0353,-0.282222 -0.0705,-0.529167 -0.14112,-0.246945 -0.28223,-0.352778 -0.45862,-0.3175 v -0.3175 l -0.0353,0.07055 h -0.0706 c 0.0706,-0.141111 0.0706,-0.211667 0,-0.211667 -0.0706,0 -0.10583,-0.07056 -0.10583,-0.176389 l -0.42334,0.176389 c 0.0353,-0.03528 0.0706,-0.07056 0.0706,-0.141111 -0.10583,0.07056 -0.24695,0.141111 -0.35278,0.246945 v -0.07056 l -0.10583,0.07056 c 0.0353,-0.07056 0.0353,-0.105834 0,-0.105834 -0.0353,0.03528 -0.10584,0.07056 -0.10584,0.141112 -0.0353,0.03528 -0.0705,0.07055 -0.10583,0.105833 z m 6.31471,-1.12889 c -0.0706,0 -0.0353,-0.105833 0.14111,-0.246945 0.0353,-0.03528 0.0353,-0.07056 0.0705,-0.07056 0.0353,0 0.0353,0 0.0706,-0.03528 0.0353,0 0.0353,0 0.0706,-0.03528 v -0.03528 c 0.0353,0 0,0.07056 -0.10584,0.176389 z m 0.74083,-0.952501 c -0.0353,0.03528 -0.0353,0.03528 -0.0705,0.07056 0.0705,-0.105833 0.14111,-0.176389 0.21166,-0.211667 l 0.45861,-0.493889 c -0.0353,0.07056 -0.0705,0.141111 -0.10583,0.176389 -0.0353,0.07056 -0.0705,0.105833 -0.14111,0.141111 -0.0353,0.07056 -0.28222,0.282223 -0.35278,0.3175 z m 1.16417,-1.27 c -0.0706,0.07055 -0.10583,0.141111 -0.17639,0.176389 -0.0706,0.07055 -0.14111,0.105833 -0.17639,0.176389 -0.0706,0.105833 -0.10583,0.141111 -0.10583,0.176389 h -0.0353 c 0,-0.03528 0.0353,-0.105834 0.14111,-0.211667 0.10583,-0.105834 0.21167,-0.211667 0.3175,-0.352778 l 0.45861,-0.423334 z m 0.0705,1.234723 c -0.0705,0.03528 -0.10583,0.07056 -0.14111,0.105833 -0.0353,0.03528 -0.0353,0.03528 -0.0705,0.07056 v -0.03528 c 0.0353,-0.07056 0.0705,-0.105834 0.10583,-0.141111 l 0.14111,-0.176389 z m 5.5739,4.16278 c -0.0706,0.176389 -0.17639,0.352778 -0.3175,0.493889 -0.0706,0.141112 -0.14111,0.141112 -0.14111,0.07056 0,-0.03528 0,-0.07056 0.0353,-0.105833 0.0353,0 0.0706,-0.03528 0.10584,0 0,-0.03528 0.0353,-0.07056 0.0353,-0.141112 0.0705,-0.141111 0.14111,-0.282222 0.24694,-0.388055 L 126.281,35.0641 Z m -5.29167,-9.242784 c 0.0705,0 0.0705,0.03528 0,0.105834 l -0.0706,0.141111 c -0.0353,-0.03528 -0.0353,-0.07056 -0.0353,-0.141111 0,-0.03528 0,-0.07056 0.0353,-0.07056 0,-0.03528 0.0353,-0.03528 0.0706,-0.03528 z m 6.70278,7.443616 c -0.21167,0.246945 -0.42333,0.49389 -0.67028,0.670279 -0.10583,0.07055 -0.10583,-0.03528 0.0353,-0.211667 0.10583,-0.211667 0.28222,-0.49389 0.56444,-0.881945 0.3175,-0.423334 0.67028,-0.846668 1.02306,-1.270001 l 0.35278,-0.388056 z m 6.94973,4.903615 c 0,0.07056 0,0.105833 -0.0353,0.07056 -0.0353,0 -0.0353,-0.07056 0,-0.141111 l 0.0353,-0.07055 c 0.10583,0 0.10583,0.07055 0,0.141111 z m 0.42333,-0.246945 c -0.17639,0.105834 -0.24694,0.141111 -0.24694,0.07056 l 0.0705,-0.07056 c 0.0353,0 0.0706,0 0.0706,-0.03528 0.0353,0 0.0705,-0.03528 0.10583,0 0.14111,-0.105833 0.21167,-0.105833 0.21167,-0.07056 z m 2.29306,0.176389 0.0705,-0.105833 v 0.03528 z m -16.263,-13.088064 c 0,0.03528 0,0.07056 -0.0353,0.105833 v 0.141111 c -0.0353,0 -0.0353,-0.07056 0.0353,-0.246944 z m 0,0.246944 v -0.07056 l 0.0706,-0.105834 v 0.03528 l -0.10584,0.635001 v -0.49389 z m 5.18584,5.997227 c 0.0353,-0.105834 0.0353,-0.176389 0.0706,-0.282223 0.0353,-0.141111 0.0706,-0.282222 0.10584,-0.493889 l 0.28222,-0.635 c 0.0353,-0.105834 0.0705,-0.211667 0.14111,-0.317501 -0.0353,-0.176389 0.0353,-0.352778 0.17639,-0.493889 0.0705,-0.07056 0.0705,0 0,0.176389 -0.0353,0.141111 -0.21167,0.599723 -0.45861,1.270001 -0.10584,0.176389 -0.14111,0.388056 -0.17639,0.564445 -0.0353,0.176389 -0.10583,0.246944 -0.14111,0.246944 -0.0353,0.03528 -0.0353,0.03528 0,-0.03528 z m 0.52916,-3.457225 c 0.0706,-0.246945 0.14112,-0.352778 0.21167,-0.3175 0.0706,0 0.0353,0.105833 -0.0353,0.3175 -0.0353,0.141111 -0.14111,0.282222 -0.21166,0.388056 -0.10584,0 -0.10584,0 -0.10584,-0.07056 0.0353,-0.03528 0.0706,-0.141111 0.14111,-0.3175 z m 5.36223,-0.246945 c -0.67028,0.776112 -1.16417,1.270001 -1.37583,1.552224 -0.24695,0.282222 -0.28223,0.352778 -0.10584,0.246944 0.0353,0 -0.10583,0.176389 -0.35278,0.49389 -0.3175,0.3175 -0.49388,0.493889 -0.59972,0.564444 -0.0705,0.07056 -0.0705,0.03528 -0.0353,-0.105833 l 2.01084,-2.504724 c 0,0.07056 0.0353,0.07056 0.10583,0 l 1.34056,-1.234723 c -0.10583,0.105833 -0.24695,0.246945 -0.38806,0.423334 -0.17639,0.176389 -0.38805,0.388055 -0.59972,0.564444 z m 1.30528,-1.799167 c 0.0705,0 -0.17639,0.3175 -0.77611,0.917222 -0.10584,0.141112 -0.21167,0.246945 -0.3175,0.317501 -0.10584,0.105833 -0.17639,0.211666 -0.28223,0.282222 0.42334,-0.529167 0.88195,-1.023056 1.37584,-1.516945 z m 1.51694,4.16278 v 0.03528 l -0.0353,0.03528 c 0,-0.105834 0.0353,-0.211667 0.10583,-0.3175 v 0.141111 z m 0.45862,-0.635 c -0.0706,-0.07056 -0.10584,0 -0.10584,0.176389 0,0.141111 -0.17639,0.176389 -0.28222,0.176389 0,-0.03528 0,-0.105834 0.0353,-0.105834 0.21166,-0.246944 0.28222,-0.388055 0.17639,-0.493889 0.10583,0 0.17639,-0.03528 0.24694,-0.105833 0.0706,-0.07056 0.10584,-0.03528 0.0706,0.105833 0,0.176389 -0.0706,0.246945 -0.14111,0.246945 z m 0.28222,-0.564445 c 0.0706,0.176389 0,0.211667 -0.10583,0.03528 V 28.99632 Z m -5.46806,11.465285 c 0.0705,0 0.0353,-0.07055 -0.10583,-0.246944 h -0.0706 c 0,0.176389 0.0706,0.246944 0.17639,0.246944 z m 6.63223,-1.658056 c 0.21166,-0.141111 0.38805,-0.282223 0.52916,-0.493889 v 0.03528 l 0.24695,-0.176389 c 0.0353,0 0.0705,-0.03528 0.10583,-0.105833 0.0706,-0.105834 0.17639,-0.246945 0.28222,-0.352778 0.38806,-0.282223 0.77611,-0.564445 1.09362,-0.917223 0.24694,-0.246945 0.49388,-0.493889 0.70555,-0.776112 0.0353,-0.141111 0.0706,-0.3175 0.14111,-0.458611 0.10584,-0.3175 0.10584,-0.423334 0.0706,-0.388056 -0.0706,0.03528 -0.14111,0 -0.17639,-0.105833 -0.0353,-0.07056 0,-0.176389 0.0706,-0.246945 0,-0.07056 -0.10583,-0.105833 -0.28222,-0.105833 h -0.35278 c -0.0705,0 -0.0705,-0.03528 0,-0.105834 0.0706,-0.105833 0.10584,-0.141111 0.10584,-0.176389 0,-0.03528 -0.0353,-0.03528 -0.10584,0 -0.0353,0.03528 -0.0705,0 -0.0705,-0.07055 0.0705,-0.105834 0.0705,-0.141111 0,-0.07056 -0.21167,0.141111 -0.28222,0.141111 -0.17639,0 0.0353,-0.105833 0.0353,-0.176389 -0.0353,-0.176389 -0.14111,-0.105833 -0.17639,-0.07055 -0.17639,0.07056 l -0.42333,0.282222 -2.82222,1.622779 c -0.10584,0.105833 -0.17639,0.176389 -0.21167,0.176389 -0.0353,0 -0.0353,-0.07056 0.0353,-0.246945 l 0.17639,-0.211666 c -0.0706,0 -0.0353,-0.07056 0.0705,-0.176389 0,-0.07056 0,-0.141112 0.0706,-0.176389 0.0353,-0.03528 0.0353,-0.07056 0.0353,-0.105834 0.0353,-0.105833 0.0706,-0.246944 0.10584,-0.3175 0.10583,-0.141111 0.17639,-0.211667 0.24694,-0.211667 h 0.0353 c 0.0353,-0.03528 0.0353,-0.03528 0.0353,-0.07056 -0.0353,-0.105834 -0.0353,-0.211667 0.0353,-0.317501 0.0705,-0.105833 0.14111,-0.176389 0.17638,-0.176389 v -0.07055 c 0.0353,-0.03528 0.0706,-0.07056 0.0706,-0.105834 0,-0.141111 0.0353,-0.176389 0.10583,-0.176389 v -0.105833 c 0,-0.03528 0.0353,-0.07056 0.0706,-0.105833 0.0353,0 0.0353,-0.03528 0.0353,-0.07056 0.10583,-0.07056 0.14111,-0.176389 0.14111,-0.3175 0,-0.03528 0,-0.105834 0.0353,-0.141112 0.0353,0 0.17638,-0.176389 0.35277,-0.493889 0.14112,-0.211667 0.24695,-0.388056 0.28223,-0.599722 l 0.14111,-0.141112 c 0.14111,-0.211666 0.24694,-0.458611 0.35278,-0.670278 0.14111,-0.246944 0.24694,-0.493889 0.3175,-0.776111 0,-0.03528 0.0353,-0.07056 0.0705,-0.105834 0,-0.03528 0.0353,-0.105833 0.10583,-0.176389 l 0.24695,-0.388056 c 0.0353,-0.141111 0.10583,-0.246944 0.21167,-0.352778 0.0353,-0.07055 0.0353,-0.141111 0.10583,-0.211666 0.0353,-0.105834 0.10583,-0.246945 0.14111,-0.352779 0.0706,-0.141111 0.14111,-0.246944 0.17639,-0.388055 0.0706,-0.141112 0.10583,-0.246945 0.17639,-0.317501 l 0.21167,-0.458611 c 0,-0.141111 0.0353,-0.246945 0.10583,-0.246945 l 0.0706,-0.03528 c 0,-0.03528 0,-0.07056 0.0353,-0.105834 0,-0.03528 0.0353,-0.07055 0.0353,-0.141111 -0.0353,-0.105833 0,-0.211667 0.0353,-0.282222 0.0353,0 0.0705,0 0.0705,-0.07056 -0.0705,0 -0.0705,-0.03528 0,-0.176389 0.0353,-0.03528 0.0706,-0.105833 0.0353,-0.176389 V 26.35048 c -0.0353,-0.07055 -0.0353,-0.141111 -0.0353,-0.246944 0,-0.03528 -0.0353,-0.105834 -0.0705,-0.176389 -0.42334,-0.635001 -0.98778,-1.199446 -1.65806,-1.587502 -0.77611,-0.529167 -1.5875,-1.023056 -2.43417,-1.446389 -0.21166,-0.105834 -0.45861,-0.141112 -0.70555,-0.105834 -0.21167,0.03528 -0.38806,0.176389 -0.45861,0.388056 0,0.141111 -0.0353,0.176389 -0.14112,0.07056 -0.10583,0 -0.21166,0.03528 -0.3175,0.105833 -0.0705,0.03528 -0.14111,0.07056 -0.21166,0.07056 h -0.0706 c 0,0.105833 -0.14111,0.211666 -0.38805,0.3175 -0.17639,0.141111 -0.35278,0.282222 -0.52917,0.458611 -0.24695,0.211667 -0.49389,0.458612 -0.81139,0.776112 l -0.9525,0.952501 c -0.3175,0.3175 -0.59972,0.599722 -0.84667,0.881945 l -2.68111,3.069168 c 0.28222,-0.635 0.59972,-1.234723 0.9525,-1.799168 0.35278,-0.599722 0.52917,-0.9525 0.45861,-1.023056 -0.3175,-0.635 -0.52917,-0.9525 -0.67028,-0.9525 -0.14111,-0.246945 -0.3175,-0.49389 -0.56444,-0.670279 -0.52917,-0.529167 -1.16417,-1.058334 -1.79917,-1.481667 -0.14111,-0.105834 -0.3175,-0.176389 -0.45861,-0.246945 -0.0706,-0.07056 -0.14111,-0.07056 -0.24695,-0.07056 -0.17639,0 -0.24694,0.03528 -0.21166,0.07056 l -0.0706,0.03528 c -1.65806,1.375834 -3.10445,3.069169 -4.48028,4.727225 l 0.84667,-1.658056 0.24694,-0.388056 c 0,-0.141111 -0.0353,-0.176389 -0.10583,-0.141111 -0.0706,0 -0.10583,0.105833 -0.21167,0.246944 l -0.17639,0.282223 0.0706,-0.282223 c 0.0705,-0.246944 0.14111,-0.352778 0.17639,-0.352778 0.24694,-0.141111 0.24694,-0.211667 0,-0.211667 -0.0706,0 -0.10584,0 -0.10584,0.03528 0,0.03528 0,0.07056 -0.0705,0.07056 -0.0353,0 0,-0.105834 0.0705,-0.352778 V 25.43326 c -0.0705,-0.03528 -0.0705,-0.03528 -0.0705,-0.07056 0.0705,-0.07056 0.0705,-0.105834 -0.0353,-0.105834 -0.0706,0 -0.17639,0.03528 -0.24694,0.105834 v -0.105834 c 0,0.03528 -0.0353,0.07056 -0.0706,0.105834 0,-0.105834 0.0353,-0.176389 0.0706,-0.176389 v -0.03528 h -0.0706 c -0.0353,-0.03528 -0.10583,0 -0.14111,0.03528 -0.0353,0 -0.0353,0.03528 -0.0706,0 l -0.24694,-0.105834 c -0.10583,-0.03528 -0.21167,-0.07055 -0.35278,-0.03528 -0.14111,0.07056 -0.21167,0.105833 -0.17639,0.07056 0.0706,-0.105833 0.14111,-0.211667 0.17639,-0.3175 0.10583,-0.105833 0.14111,-0.211667 0.17639,-0.352778 0.0353,-0.141111 0.0353,-0.211667 -0.0353,-0.176389 -0.0705,0 -0.14111,0.03528 -0.14111,0.105833 0,0.07056 0,0.07056 -0.0353,0 -0.0353,0 -0.0706,-0.03528 -0.0706,-0.141111 0.0706,-0.105833 0.0706,-0.141111 -0.0706,-0.141111 -0.0353,0 -0.0353,-0.03528 -0.0353,-0.176389 0.0353,-0.105834 0,-0.176389 -0.10583,-0.176389 -0.0705,0 -0.17639,0.07055 -0.24694,0.141111 -0.10584,0.07056 -0.14111,0.03528 -0.10584,-0.07056 0.0353,-0.105833 0,-0.176389 -0.14111,-0.176389 0.10584,-0.176389 0,-0.03528 -0.3175,0.458612 -0.28222,0.493889 -0.67028,1.199445 -1.19944,2.116668 -0.52917,0.881945 -1.09362,1.905001 -1.69334,2.998613 -0.635,1.093612 -1.19944,2.116668 -1.72861,3.069169 -0.52917,0.987778 -0.98778,1.76389 -1.37583,2.363613 -0.14112,0.3175 -0.3175,0.599722 -0.59973,0.917222 -0.0353,0 -0.0353,0.07056 -0.0353,0.141112 -0.0353,0.141111 -0.0706,0.246944 -0.17639,0.352778 -0.0353,0 -0.0706,0.07055 -0.0706,0.105833 v 0.03528 c 0,0.03528 -0.0353,0.105833 -0.0706,0.141111 -0.0706,0.03528 -0.14111,0.105833 -0.17638,0.176389 -0.0353,0.07056 -0.0353,0.141111 -0.0706,0.211667 0,0.07055 -0.0353,0.141111 -0.0706,0.176389 -0.0705,0.176389 -0.14111,0.3175 -0.24694,0.458611 -0.10583,0.211667 -0.24694,0.388056 -0.38806,0.564445 -0.10583,0.211667 -0.24694,0.388056 -0.3175,0.599723 -0.10583,0.141111 -0.14111,0.282222 -0.17639,0.458611 0,0.211667 0.0353,0.388056 0.10584,0.599723 0.0705,0.176389 0.10583,0.246944 0.21167,0.211667 h 0.0353 v -0.176389 c 0,-0.03528 0.0353,-0.105834 0.0706,-0.141112 0.0706,0.07056 0.10583,0.141112 0.0706,0.317501 -0.0353,0.03528 0,0.07055 0.0353,0.105833 0.0353,0.03528 0.0706,0.07056 0.10584,0.07056 0.10583,0 0.21166,-0.03528 0.3175,-0.07056 l 0.10583,-0.07056 c 0,0.03528 0.0705,0.03528 0.17639,-0.03528 0.0705,-0.03528 0.0705,-0.03528 0,0.03528 -0.0353,0.141112 -0.0706,0.246945 -0.0706,0.388056 0,0.176389 0.0353,0.246945 0.0706,0.246945 0.17639,0.03528 0.3175,0.176389 0.35278,0.352778 0,0.07055 0.0705,0.211667 0.24694,0.352778 0.14111,0.141111 0.35278,0.246944 0.56445,0.282222 0.10583,0 0.21166,0.07056 0.28222,0.246945 0.0353,0.141111 0.17639,0.282222 0.35278,0.352778 0.28222,0.176389 0.52916,0.141111 0.67027,-0.141111 0.14112,-0.176389 0.24695,-0.282223 0.35278,-0.282223 0.0353,0 0.10584,-0.07055 0.17639,-0.211667 0,-0.07055 0.0353,-0.105833 0.10583,-0.176389 l 0.0706,-0.07055 c 0.0353,0 0.14111,-0.141111 0.35278,-0.388056 0.17639,-0.246945 0.38805,-0.529167 0.67028,-0.917223 0.24694,-0.352778 0.49389,-0.740834 0.74083,-1.128889 0.24694,-0.388056 0.45861,-0.705557 0.67028,-0.952501 1.86972,-2.786946 3.42195,-4.938892 4.62139,-6.526393 1.19945,-1.587501 1.86972,-2.434169 1.94028,-2.540002 -0.49389,1.270001 -0.91722,2.363613 -1.27,3.280835 -0.35278,0.917223 -0.635,1.693335 -0.88195,2.328335 -0.24694,0.670279 -0.49389,1.234723 -0.67027,1.728613 0,0.07055 -0.0353,0.141111 -0.10584,0.211666 -0.17639,0 -0.21166,0.07056 -0.14111,0.176389 0,0.105834 -0.0705,0.246945 -0.17639,0.282223 v 0.246944 l -0.10583,0.105834 h -0.0353 c 0,0.03528 -0.0353,0.03528 -0.0353,0.07055 0.0706,0 0.0706,0.141112 0.0353,0.49389 -0.0353,0.211666 0.0353,0.458611 0.21167,0.635 l 2.54,2.046113 c 0.21167,0.141111 0.35278,0.211666 0.38805,0.141111 0.10584,0 0.14112,0.03528 0.14112,0.07055 0,0.03528 0,0.07056 0.0353,0.105834 0.0353,0 0.0706,0 0.0706,-0.03528 0.14111,0.03528 0.28222,-0.03528 0.38806,-0.141111 0.0705,-0.141111 0.10583,-0.282223 0.0705,-0.458612 0,-0.07055 0.0353,-0.07055 0.0706,-0.105833 0.10583,-0.176389 0.14111,-0.3175 0.10583,-0.352778 0,-0.03528 0.0353,-0.07056 0.0706,-0.105833 0.0353,-0.03528 0.0353,-0.07056 0.0353,-0.07056 0,-0.03528 0.0353,-0.07056 0.10584,-0.105833 0.14111,-0.105834 0.17639,-0.141112 0.14111,-0.07056 -0.0353,0.03528 -0.17639,0.282222 -0.35278,0.705556 -0.0706,0.282222 -0.14111,0.423334 -0.14111,0.493889 -0.0353,0.07056 0,0.07056 0.0353,0.07056 0.0353,0.07055 0.10583,0 0.17639,-0.105834 0.10583,-0.105833 0.17638,-0.246944 0.21166,-0.388055 0.59973,-1.234723 1.30528,-2.363613 2.11667,-3.457225 1.72861,-2.469446 3.59834,-4.868337 5.53862,-7.196671 0.84666,-1.058335 1.51694,-1.869724 1.97555,-2.434169 -0.17639,0.388056 -0.45861,0.917223 -0.84667,1.622779 -0.84666,1.658057 -1.69333,3.351391 -2.54,5.009448 -0.42333,0.881945 -0.81139,1.693334 -1.12889,2.434168 -0.3175,0.776112 -0.59972,1.375834 -0.74083,1.905001 -0.17639,0.529168 -0.21167,0.846668 -0.10583,0.952501 0.0705,0.07056 0.0705,0.176389 0,0.282223 0,0.105833 0.0705,0.211666 0.17639,0.246944 0.10583,0 0.17638,0.03528 0.17638,0.105834 0,0.07056 0.0353,0.105833 0.10584,0.07056 0.0706,-0.07056 0.10583,-0.07056 0.0706,0 -0.0706,0.07056 -0.0706,0.176389 0,0.3175 0.0706,0.141112 0.14111,0.141112 0.21167,0.07056 v 0.07056 c 0,0.03528 0.0353,0.07055 0.0353,0.07055 0.0353,0.03528 0.0353,0.07056 0.0353,0.105834 -0.0353,0.03528 -0.0706,0.07055 -0.0706,0.105833 0.10583,0 0.14111,0 0.14111,-0.07056 0.14111,0.211667 0.21167,0.317501 0.17639,0.352778 -0.10583,0.07056 -0.10583,0.176389 -0.0353,0.282223 0.0353,0.07055 0.10584,0.105833 0.17639,0.07055 0.10584,-0.03528 0.21167,0 0.3175,0.07056 0.10584,0.03528 0.14111,0.176389 0.10584,0.282222 0,0.141112 0.0353,0.176389 0.17638,0.176389 0.10584,0.07056 0.17639,0.141112 0.17639,0.176389 0,0.03528 0,0.07056 0.0353,0.105834 0.10583,0.07056 0.21167,0.141111 0.3175,0.176389 0.21167,0.141111 0.35278,0.211667 0.52917,0.211667 0.17639,0 0.35278,-0.105834 0.49389,-0.282223 0,-0.07055 0.0705,-0.141111 0.24694,-0.211667 0.14111,-0.07055 0.28222,-0.176389 0.45861,-0.246944 l 3.63362,-2.645835 c 0,-0.07056 0.0705,-0.105834 0.14111,-0.141111 0.0353,-0.03528 0.0705,-0.03528 0.10583,-0.03528 z m -6.8439,-8.537228 c 0.0706,-0.03528 0,0.03528 -0.17639,0.211667 z m 3.175,-3.52778 c -0.0353,0.03528 -0.0705,0.07056 -0.0705,0.105833 l 0.28222,-0.282222 c -0.0705,0.07056 -0.14111,0.141111 -0.21167,0.176389 z m 13.58196,3.704169 c 0.21167,-0.211667 0.35278,-0.352778 0.45861,-0.423334 0.10584,-0.07055 0.0706,0 -0.0705,0.176389 l -2.43417,2.610557 c -0.14111,0.07056 -0.17639,0.105834 -0.0705,0.105834 l 0.0705,0.03528 -1.19944,1.516945 c -0.17639,0.141111 -0.28223,0.282223 -0.38806,0.388056 -0.10583,0.141111 -0.17639,0.246945 -0.24694,0.352778 -0.10584,0.141111 -0.17639,0.282222 -0.24695,0.423334 -0.0705,0 0,-0.176389 0.21167,-0.458612 0.21166,-0.3175 0.49389,-0.705556 0.81139,-1.128889 0.3175,-0.458612 0.67028,-0.917223 0.98778,-1.375835 0.28222,-0.352778 0.56444,-0.705556 0.88194,-1.023056 0.21167,-0.176389 0.38806,-0.352778 0.56445,-0.529167 z m -0.0353,7.937505 c 0.21166,-0.105833 0.38805,-0.176389 0.59972,-0.246945 0.45861,-0.176389 0.91722,-0.352778 1.41111,-0.564444 l 1.51695,-0.564445 c 0.10583,-0.03528 0.21166,-0.07056 0.35277,-0.105834 0.0706,-0.03528 0.14112,-0.07055 0.21167,-0.07055 -0.38806,0.176389 -0.70556,0.352778 -0.9525,0.458611 -0.28222,0.105834 -0.56444,0.246945 -0.81139,0.388056 -0.21167,0.105833 -0.42333,0.176389 -0.635,0.246945 l -1.16417,0.423333 z m 5.715,-8.643061 -1.05833,0.564445 c -0.3175,0.176389 -0.74084,0.388055 -1.23473,0.635 -0.38805,0.246945 -0.81139,0.423334 -1.23472,0.599723 l -0.10583,0.03528 h -0.0706 c -0.0353,0 -0.0706,0.03528 -0.10583,0.03528 -0.0353,0.03528 -0.0706,0.03528 -0.10584,0.03528 -0.81139,0.388056 -1.62278,0.670278 -2.50472,0.917223 0.3175,-0.3175 0.67028,-0.599723 0.98778,-0.881945 0.3175,-0.246945 0.56444,-0.423334 0.70555,-0.564445 l 0.0706,0.141111 0.3175,-0.423333 0.98778,-0.81139 v 0.07056 l 0.35278,-0.282223 c 0.0705,-0.07055 0.17639,-0.141111 0.28222,-0.141111 0.14111,-0.105833 0.24694,-0.176389 0.42333,-0.282222 0.17639,-0.105834 0.35278,-0.211667 0.49389,-0.352778 0.14111,-0.07056 0.3175,-0.141112 0.45861,-0.176389 h -0.0353 l 0.17638,-0.03528 v 0.03528 c 0.17639,-0.105834 0.35278,-0.176389 0.56445,-0.211667 0.0353,0 0.0705,0 0.10583,-0.03528 0,0 0.0353,-0.03528 0.0706,-0.03528 0,0 0.0353,0 0.10583,-0.03528 l 1.62278,-0.423333 h 0.56445 c 0.10583,0.03528 0.14111,0.176389 0.14111,0.423333 l -0.0706,-0.07055 -2.25778,1.270001 z m -1.65806,2.116668 c 0.70556,-0.246945 1.23473,-0.458612 1.48167,-0.599723 0.14111,-0.07056 0.3175,-0.141111 0.45861,-0.176389 -0.17639,0.105834 -0.38805,0.211667 -0.59972,0.3175 -0.56445,0.211667 -1.16417,0.458612 -1.69334,0.740834 -0.24694,0.105834 -0.35277,0.176389 -0.35277,0.211667 -0.0706,0 -0.0706,-0.07056 0.0706,-0.176389 0.17639,-0.105833 0.38806,-0.211667 0.635,-0.282222 z m 3.45723,-1.234723 c 0.0353,-0.07056 0.0705,-0.07056 0.10583,-0.07056 h 0.0706 l -0.0706,0.176389 z m 1.27,2.681113 c 0.0353,0 0.0705,-0.03528 0.0705,-0.07056 l 0.21167,-0.141111 v 0.03528 c -0.67028,0.458611 -1.34056,0.846667 -2.08139,1.199445 -2.18722,1.12889 -6.91445,3.351391 -9.45445,3.351391 -0.98778,-0.07056 -1.34056,-0.458611 -1.02306,-1.199445 0.56445,-1.093612 1.23473,-2.151946 2.01084,-3.104447 h 0.0353 l 0.49389,0.352778 c 0.0353,0 0.10583,0 0.14111,0.03528 h 0.14111 c 0.0353,0.03528 0.0706,0.07056 0.10583,0.07056 0.0353,-0.07056 0.0706,-0.07056 0.0706,0.07056 0.0353,0 0.0705,0 0.10583,0.03528 0.17639,0.03528 0.21167,0.03528 0.0706,0 -0.0706,-0.03528 0.0705,-0.03528 0.38805,0 0.59972,0.141111 0.70556,0.176389 0.28222,0.141111 -0.59972,-0.141111 -0.59972,-0.07056 0.0706,0.141112 0.56444,0 0.81139,-0.03528 0.74083,-0.141112 h 0.10584 c 0.10583,-0.03528 0.17639,-0.03528 0.24694,-0.07056 0.49389,-0.03528 0.91722,-0.07056 1.30528,-0.105834 0.59972,-0.141111 1.16417,-0.352778 1.69333,-0.635 l 1.76389,-0.635001 c 1.30528,-0.564444 2.43417,-1.481667 3.31612,-2.610557 0.24694,-0.388056 0.21166,-1.058334 -0.14111,-2.08139 -0.49389,-2.540002 -2.43417,-3.316113 -4.72723,-3.316113 -4.51556,0 -9.41917,4.233336 -11.85334,7.937505 -0.38806,0.493889 -0.77611,1.516945 -0.88195,2.116668 -0.0705,0.458611 -0.0705,0.917223 -0.0353,1.340556 0.21166,1.587501 3.21028,4.162781 4.83306,4.727226 0.0353,0.07055 0.0705,0.141111 0.10583,0.176389 0.0353,0.105833 0.17639,0.176389 0.28222,0.176389 0.10584,0.211667 1.37584,0.493889 1.69334,0.493889 0.24694,0 0.45861,-0.03528 0.67027,-0.105833 0.45862,-0.141112 0.88195,-0.246945 1.19945,-0.352778 1.69333,-0.564445 3.28084,-1.340557 4.79778,-2.293057 0.45861,-0.246945 0.98778,-0.599723 1.55222,-0.987779 1.02306,-0.599723 2.01084,-1.340556 2.89278,-2.116668 0.24695,-0.176389 0.45862,-0.388056 0.635,-0.635 v -0.81139 c 0.0706,-0.105833 0.0353,-0.282222 -0.0705,-0.529167 -0.14111,-0.246945 -0.28222,-0.352778 -0.45861,-0.3175 v -0.3175 l -0.0353,0.07055 h -0.0706 c 0.0706,-0.141111 0.0706,-0.211667 0,-0.211667 -0.0705,0 -0.10583,-0.07056 -0.10583,-0.176389 l -0.42333,0.176389 c 0.0353,-0.03528 0.0705,-0.07056 0.0705,-0.141111 -0.10583,0.07056 -0.24694,0.141111 -0.35278,0.246945 v -0.07056 l -0.10583,0.07056 c 0.0353,-0.07056 0.0353,-0.105834 0,-0.105834 -0.0353,0.03528 -0.10583,0.07056 -0.10583,0.141112 -0.0353,0.03528 -0.0706,0.07055 -0.10584,0.105833 z m 5.96193,2.645835 c -0.10584,0.211667 -0.21167,0.388056 -0.3175,0.529167 -0.10584,0.141111 -0.17639,0.141111 -0.17639,0.07055 0,-0.03528 0.0353,-0.07055 0.0353,-0.105833 0.0353,0 0.0705,-0.03528 0.10583,0 0.0353,-0.03528 0.0353,-0.07056 0.0353,-0.141111 0.0705,-0.141111 0.14111,-0.282223 0.24694,-0.388056 l 0.17639,-0.282222 z m 10.72445,2.504724 c 0,0.07056 -0.0353,0.105833 -0.0706,0.07056 -0.0353,0 -0.0353,-0.07056 0,-0.141111 l 0.0706,-0.03528 c 0.0705,0 0.0705,0.03528 0,0.105834 z m 0.3175,-0.246945 c -0.10583,0.141111 -0.14111,0.141111 -0.14111,0.07056 l 0.0353,-0.07056 c 0.0353,-0.03528 0.0705,-0.03528 0.10583,-0.03528 0.17639,-0.105833 0.24694,-0.105833 0.24694,-0.07056 z m -10.75973,-6.949727 c 0.0353,-0.105833 0.0706,-0.282222 0.10583,-0.493889 l 0.38806,-0.952501 c 0,-0.176389 0.0705,-0.352778 0.17639,-0.458611 0.10583,-0.105833 0.10583,-0.03528 0.0353,0.141111 -0.0353,0.176389 -0.21167,0.599723 -0.49389,1.270001 -0.0706,0.176389 -0.10584,0.388056 -0.17639,0.564445 -0.0353,0.176389 -0.0706,0.246944 -0.10584,0.246944 -0.0353,0.03528 -0.0353,0.03528 0,-0.03528 0,-0.105834 0.0353,-0.176389 0.0706,-0.282223 z m 0.84667,-3.175002 c 0,-0.03528 0.0353,-0.07056 0.0353,-0.105833 0.0353,0 0.0353,-0.03528 0.0353,-0.07056 l 0.10584,0.03528 v 0.141111 c -0.0353,0.141111 -0.10584,0.282222 -0.21167,0.388056 -0.10583,0 -0.10583,0 -0.10583,-0.07056 0.0353,-0.03528 0.0705,-0.141111 0.14111,-0.3175 z m 0.45861,5.468059 c -0.17639,0.246945 -0.38806,0.49389 -0.635,0.705556 -0.10584,0.03528 -0.10584,-0.07055 0,-0.246944 0.14111,-0.176389 0.3175,-0.49389 0.59972,-0.881945 0.3175,-0.423334 0.67028,-0.846668 1.02306,-1.234723 l 0.35277,-0.423334 z m 5.96195,-6.879171 c 0.0705,0 -0.17639,0.3175 -0.67028,0.917223 l 0.14111,-0.105834 -0.635,0.635001 0.10583,-0.211667 -0.17639,0.211667 c 0.0353,0.03528 0,0.07055 0,0.105833 -0.0353,0 -0.0706,0.03528 -0.10583,0 -1.19944,1.234723 -1.76389,1.869724 -1.69333,1.869724 0,0 0,0 0.0353,-0.03528 -0.0353,0.03528 -0.14111,0.211667 -0.28222,0.493889 -0.35278,0.3175 -0.56444,0.493889 -0.635,0.529167 -0.10583,0.07056 -0.10583,0.03528 -0.0705,-0.07056 l 2.11666,-2.540002 c 0,0.07055 0.0353,0.07055 0.14111,0 l 0.74084,-0.635001 c 0.24694,-0.423333 0.59972,-0.811389 0.98778,-1.164167 z m 2.39889,3.52778 c -0.0353,-0.03528 -0.0706,-0.03528 -0.0706,0 -0.0353,0.07056 0,0.141111 0.0353,0.176389 0,0.105834 -0.0353,0.176389 -0.0706,0.176389 -0.0353,-0.03528 -0.10583,0 -0.17639,0.176389 l -0.0353,0.105834 c -0.0353,0.07056 -0.0706,0.07056 -0.0706,0.07056 l 0.10583,-0.458611 c 0.17639,-0.246945 0.21167,-0.388056 0.10584,-0.458612 0.10583,-0.03528 0.17639,-0.07056 0.24694,-0.141111 0,-0.07055 0.0353,-0.03528 0.0706,0.141111 0,0.141112 -0.0353,0.211667 -0.14111,0.211667 z m 0.17639,-0.564445 c 0.14111,0.141112 0.0705,0.176389 -0.10584,0.03528 v -0.105833 z m 3.52778,8.537228 c 0.0353,0 0.0705,-0.03528 0.10583,-0.105833 l 0.14111,-0.141111 c 0.0353,-0.07056 0.10583,-0.141112 0.14111,-0.211667 0.14111,-0.105834 0.28222,-0.246945 0.49389,-0.423334 0.17639,-0.176389 0.35278,-0.352778 0.49389,-0.529167 l 0.45861,-0.458611 c 0.10584,-0.141111 0.17639,-0.211667 0.17639,-0.246945 0.21167,-0.3175 0.42333,-0.599722 0.635,-0.917223 0.0353,-0.03528 0.0353,-0.03528 0.0706,-0.07055 0.0353,-0.03528 0,-0.03528 -0.0353,0 -0.0706,0.03528 -0.17639,-0.03528 -0.35278,-0.176389 -0.21167,-0.176389 -0.28222,-0.282223 -0.17639,-0.352778 0,-0.07056 -0.10583,-0.105834 -0.3175,-0.105834 h -0.3175 c -0.10583,0 -0.10583,-0.03528 0,-0.141111 0.0706,-0.07055 0.10584,-0.105833 0.10584,-0.176389 0,-0.03528 -0.0353,-0.03528 -0.10584,0 -0.0705,0.07056 -0.0705,0.03528 -0.0705,-0.03528 0.0705,-0.105833 0.0705,-0.141111 0,-0.07056 -0.24695,0.105833 -0.28223,0.105833 -0.17639,0 0.0353,-0.105834 0.0353,-0.176389 -0.0706,-0.176389 -0.10583,-0.105834 -0.17639,-0.07056 -0.17639,0.07056 l -3.21028,2.187224 c -0.10583,0.105833 -0.21166,0.176389 -0.24694,0.176389 -0.0353,0 0,-0.07056 0.0705,-0.246945 l 0.10584,-0.211666 c -0.0706,0 -0.0353,-0.07056 0.0705,-0.176389 0,-0.07056 0,-0.105834 0.0353,-0.176389 0,-0.03528 0.0353,-0.07056 0.0353,-0.105834 0,-0.105833 0.0353,-0.211667 0.0705,-0.3175 0.0706,-0.141111 0.14112,-0.211667 0.21167,-0.211667 h 0.0353 v -0.282222 c -0.10583,0.176389 -0.24695,0.423333 -0.38806,0.670278 -0.14111,0.282222 -0.24694,0.388056 -0.24694,0.3175 0,-0.141111 0.0353,-0.176389 0.14111,-0.176389 v -0.211667 c 0.0353,-0.03528 0.0353,-0.07055 0.0353,-0.105833 0.0705,-0.07056 0.14111,-0.176389 0.14111,-0.282222 -0.0353,-0.03528 0,-0.105834 0.0353,-0.176389 0.10583,0 0.49389,-0.917223 0.52916,-1.093612 0,-0.07056 0,-0.105834 0.0706,-0.105834 0.17639,-0.458611 0.3175,-0.811389 0.45861,-1.093612 0.10583,-0.282222 0.21167,-0.529167 0.28222,-0.740833 l 0.10584,-0.423334 c 0.0353,-0.03528 0.0705,-0.07056 0.0705,-0.105833 0,-0.07056 0,-0.141112 0.0353,-0.176389 l 0.17639,-0.388056 c 0,-0.141111 0.0705,-0.282223 0.17639,-0.352778 0,-0.07056 0.0353,-0.141111 0.0705,-0.211667 0.0353,-0.105833 0.0706,-0.246945 0.0353,-0.388056 0.10583,-0.105833 0.14111,-0.211667 0.17639,-0.352778 0,-0.105833 0.0353,-0.211667 0.0706,-0.3175 l 0.17638,-0.458612 c 0,-0.176389 0,-0.246944 0.0706,-0.246944 v -0.03528 c -0.0353,-0.03528 0,-0.07056 0,-0.105833 0.0353,-0.03528 0.0353,-0.105834 0.0353,-0.141112 0,-0.105833 0,-0.211666 0.0705,-0.352778 -0.0353,0 -0.0705,-0.03528 -0.0705,-0.176389 0.0353,-0.03528 0.0705,-0.105833 0.0705,-0.176389 h -0.0353 c -0.0353,0 -0.0353,-0.03528 -0.0353,-0.03528 v -0.176389 c -0.0353,-0.141112 -0.10584,-0.282223 -0.17639,-0.423334 0.0353,-0.176389 0,-0.352778 -0.10583,-0.493889 -0.28223,-0.352778 -0.49389,-0.599723 -0.88195,-0.846667 -0.14111,-0.07056 -0.28222,-0.141112 -0.38806,-0.246945 -0.10583,-0.105833 -0.35277,-0.246945 -0.74083,-0.529167 -0.24694,-0.211667 -0.52917,-0.352778 -0.81139,-0.423334 h -0.10583 c 0,-0.07056 -0.0706,-0.105833 -0.17639,-0.105833 -0.14111,0 -0.14111,0.03528 -0.0706,0.07055 0.0706,0.07056 0.0706,0.105834 0,0.105834 -0.10583,0 -0.17639,-0.07056 -0.24694,-0.141111 -0.10583,-0.105834 -0.10583,-0.176389 -0.0353,-0.211667 -0.17639,-0.07056 -0.35278,-0.141111 -0.52917,-0.211667 -0.21166,-0.105833 -0.49389,-0.141111 -0.74083,-0.105833 -0.21167,0.03528 -0.35278,0.176389 -0.42333,0.388055 0,0.141112 -0.0353,0.176389 -0.14111,0.07056 -0.10584,0 -0.21167,0.03528 -0.3175,0.105833 -0.0706,0.03528 -0.14112,0.03528 -0.21167,0.03528 h -0.0706 c 0,0.07056 -0.0353,0.105834 -0.10583,0.176389 -0.0706,0.03528 -0.17639,0.105834 -0.24695,0.176389 -0.14111,0.176389 -0.56444,0.564445 -1.23472,1.199446 -0.67028,0.635 -1.79917,1.76389 -3.35139,3.351391 0.38806,-1.058334 0.77611,-2.151946 1.37583,-3.104447 h -0.17638 c -0.0706,0 -0.14112,0.03528 -0.17639,0.07056 l -0.35278,0.493889 c 0,-0.07056 0,-0.105833 -0.0353,-0.105833 -0.0705,-0.03528 -0.14111,-0.141112 -0.14111,-0.211667 v -0.3175 c -0.0353,0 -0.0706,0.07055 -0.17639,0.176389 -0.0705,0.141111 -0.10583,0.176389 -0.10583,0.141111 0.0705,-0.105834 0.0705,-0.141111 -0.0353,-0.141111 -0.10583,0 -0.17639,0.07055 -0.24695,0.141111 v 0.03528 h -0.0353 c -0.0353,0 -0.0353,-0.03528 -0.0353,-0.03528 0,-0.141111 0.0353,-0.176389 0.0353,-0.211667 0,-0.03528 0,-0.03528 -0.0353,-0.03528 -0.0353,0 -0.10583,0 -0.14111,0.03528 -0.0353,0.03528 -0.0353,0.03528 -0.0706,0.03528 l -0.0705,0.03528 h -0.28223 l 0.10584,-0.105834 c 0.10583,-0.105833 0.14111,-0.211667 0.17639,-0.352778 0.0353,-0.141111 0.0353,-0.211667 -0.0706,-0.176389 0,0 -0.0353,0.03528 -0.0705,0.03528 -0.0353,0.03528 -0.0353,0.07056 -0.0706,0.105833 -0.0706,0 -0.0706,-0.07056 -0.0706,-0.176389 0.0706,-0.07055 0.0706,-0.141111 -0.0706,-0.141111 -0.0353,0 -0.0353,-0.03528 -0.0353,-0.176389 0.0353,-0.105833 0,-0.141111 -0.10583,-0.141111 -0.10584,0 -0.17639,0.03528 -0.24695,0.105833 -0.10583,0.07056 -0.17639,0.03528 -0.10583,-0.07055 0.0353,-0.105834 0,-0.176389 -0.14111,-0.176389 -0.0706,0 -0.10583,0.03528 -0.10583,0.105833 -0.0353,0.105834 -0.10584,0.211667 -0.17639,0.3175 -0.0353,0.07056 -0.0706,0.03528 -0.0706,-0.07055 0,-0.07056 0.0353,-0.141111 0.0706,-0.211667 -1.90501,3.175002 -3.6689,6.455838 -5.2564,9.771951 -0.42333,0.846667 -0.74083,1.552223 -1.02305,2.08139 0,0.105834 -0.0353,0.176389 -0.10584,0.246945 -0.17639,0 -0.21166,0.03528 -0.14111,0.176389 0,0.105833 -0.0705,0.211667 -0.17639,0.282222 v 0.211667 l -0.10583,0.141111 h -0.0353 c 0,0 -0.0353,0.03528 0,0.03528 0.10584,0 0.10584,0.211667 0.0353,0.599723 l -0.17639,0.564445 0.28222,0.458611 c 0.10584,0.176389 0.28223,0.282222 0.45862,0.352778 0.14111,0.03528 0.24694,0.07056 0.35277,0.105833 h 0.3175 c 0.10584,-0.07055 0.21167,0 0.28223,0.176389 0.0705,0.141112 0.14111,0.246945 0.21166,0.352778 l 0.0706,0.07056 c 0,0.07056 0,0.105833 0.0353,0.105833 0.14111,0 0.17638,0 0.17638,0.07056 l 0.0353,0.03528 h 0.0353 l 0.38806,0.282222 c 0.24694,0.176389 0.38805,0.211667 0.42333,0.176389 0.0706,0 0.10583,0.03528 0.10583,0.07056 0,0.03528 0.0353,0.07055 0.10584,0.07055 0.17639,0.03528 0.3175,-0.03528 0.38805,-0.176389 0.10584,-0.105833 0.14111,-0.282222 0.10584,-0.423333 0,-0.03528 0,-0.03528 0,-0.07056 l 0.0353,-0.03528 c 0.10584,-0.211666 0.17639,-0.3175 0.10584,-0.352778 0.0353,-0.03528 0.14111,-0.211666 0.14111,-0.211666 0,0 0.0353,-0.03528 0.10583,-0.07056 l 0.10584,-0.105833 c -0.0353,0.07055 -0.14112,0.3175 -0.35278,0.740833 -0.0706,0.246945 -0.10584,0.423334 -0.14111,0.49389 0,0.03528 0,0.07055 0.0353,0.07055 0.0353,0.03528 0.10584,0 0.21167,-0.105833 0.10583,-0.105834 0.17639,-0.246945 0.21167,-0.423334 1.905,-4.021669 5.29167,-8.149172 8.53723,-11.288896 0.635,-0.635001 1.37583,-1.199446 2.18722,-1.622779 -0.3175,0.635 -0.74083,1.481668 -1.23472,2.575279 -0.91723,2.046113 -1.86973,4.092225 -2.54001,6.244171 -0.24694,0.846667 -0.28222,1.375834 -0.10583,1.516946 0.0706,0.07055 0.0706,0.176389 0.0706,0.282222 0,0.105834 0.0705,0.211667 0.17639,0.246945 0.10583,0 0.17638,0.03528 0.17638,0.105833 0,0.07056 0.0353,0.105834 0.10584,0.07056 0.0705,-0.105834 0.10583,-0.105834 0.0353,0 -0.0353,0.105833 0,0.211667 0.0705,0.3175 0.0706,0.105833 0.14111,0.141111 0.24695,0.07056 v 0.141111 c 0.0353,0.03528 0.0353,0.07055 0.0353,0.105833 0,0.352778 0.17639,0.564445 0.45862,0.564445 0.10583,0 0.0353,-0.07056 -0.10584,-0.246945 -0.0705,-0.07055 -0.14111,-0.176389 -0.17639,-0.211666 l 0.24695,0.105833 c 0.14111,0.211667 0.21166,0.3175 0.17639,0.352778 -0.0353,0.07056 -0.0353,0.176389 0,0.246945 0.0705,0.105833 0.14111,0.141111 0.21166,0.105833 0.10584,-0.03528 0.21167,-0.03528 0.28223,0.03528 0.10583,0.07055 0.17638,0.176389 0.17638,0.3175 0,0.03528 0.0353,0.07056 0.0706,0.105833 0,0.03528 0.0706,0.07056 0.10583,0.07056 0.14111,0.07056 0.17639,0.105833 0.17639,0.141111 l 0.10584,0.141111 c 0.10583,0.07056 0.21166,0.105834 0.3175,0.176389 0.17639,0.141112 0.42333,0.282223 0.635,0.352778 0.21166,0.105834 0.49389,0.07056 0.635,-0.141111 0,-0.07055 0.38805,-0.352778 1.23472,-0.846667 0.9525,-0.635 1.83445,-1.411112 2.61056,-2.257779 v 0.07056 z m -6.87917,-10.512785 0.10583,-0.07056 z m 0.77611,-0.458611 c -0.17639,0.176389 -0.24695,0.246945 -0.24695,0.282222 0.17639,-0.141111 0.24695,-0.246944 0.24695,-0.282222 z m 4.48028,7.020283 -0.0353,0.03528 v 0.03528 c -0.0353,0.03528 -0.0706,0.07056 -0.0706,0.105834 0,0.07055 -0.0353,0.105833 -0.0705,0.141111 0.0705,-0.211667 0.14111,-0.3175 0.17639,-0.3175 z m 2.43417,2.540001 c 0,-0.07055 0.0353,-0.105833 0.0353,-0.105833 0.0353,0 0.0353,0.03528 0.0353,0.07055 0.0353,0.07056 0.0353,0.105834 0,0.176389 h -0.0706 z m 0.42333,0.458612 c -0.0353,0.03528 -0.0705,0 -0.10583,-0.105834 0,-0.03528 0.0706,-0.03528 0.10583,-0.03528 z m 2.82223,-1.305279 c -0.0353,0.03528 -0.0706,0.07056 -0.0706,0.105833 v 0.03528 c 0,0.03528 -0.0353,0.03528 -0.0353,0.03528 -0.0353,0 -0.0353,0 -0.0706,-0.03528 v -0.03528 c 0,-0.03528 0.0706,-0.105833 0.17639,-0.176389 0.0705,-0.07055 0.0705,-0.03528 0,0.07056 z m 1.44639,4.303892 c -0.0706,0.07055 -0.10583,0.07055 -0.17639,0.07055 h -0.0706 l 0.0706,-0.07055 c 0.0353,-0.03528 0.0706,-0.03528 0.0706,-0.03528 0.0353,0 0.0705,-0.03528 0.10583,-0.07056 0.14111,-0.07055 0.21167,-0.105833 0.21167,-0.03528 v 0.03528 h -0.0353 c -0.0353,0.03528 -0.0706,0.07056 -0.10584,0.07056 0,0 -0.0353,0 -0.0705,0.03528 z m 0.17639,-2.751669 c -0.10584,0.03528 -0.10584,0 -0.0706,-0.07055 0.0353,-0.03528 0.10584,-0.03528 0.17639,-0.03528 z m 1.76389,-0.9525 c -0.0706,0.07055 -0.10584,0.07055 -0.17639,0.07055 -0.0353,0.03528 -0.0706,0.03528 -0.10583,0.07056 -0.17639,0.105833 -0.28223,0.141111 -0.28223,0.07055 0,-0.03528 0.0706,-0.105833 0.24695,-0.176389 0.17639,-0.07055 0.28222,-0.105833 0.3175,-0.07055 z m 0.0705,-0.49389 c -0.0705,0.07056 -0.14111,0.105834 -0.17639,0.105834 -0.0353,0.03528 -0.10583,0.07055 -0.17638,0.07055 -0.0353,0 -0.0706,0.03528 -0.10584,0.07056 0,-0.07056 0.0706,-0.105833 0.21167,-0.176389 0.10583,-0.07056 0.21167,-0.105833 0.3175,-0.141111 z m 0.35278,-0.246944 c 0.0353,0.07055 0,0.105833 -0.14111,0.141111 -0.0706,0.03528 -0.0706,0 0,-0.07056 z m 0.28222,-0.105834 c 0.10584,-0.07055 0.21167,-0.105833 0.35278,-0.105833 0.0706,0 0.10584,0 0.0706,0.03528 -0.0706,0.03528 -0.10584,0.07055 -0.17639,0.07055 -0.14111,0.07056 -0.24695,0.105834 -0.35278,0.105834 -0.0353,0 0,-0.03528 0.10583,-0.105834 z m 0.45862,2.645836 c -0.0706,0.105833 -0.14112,0.141111 -0.17639,0.141111 -0.0353,0 0,-0.07056 0.10583,-0.176389 0.10583,-0.07056 0.10583,-0.07056 0.0706,0.03528 z m 0.0705,-2.469447 c 0,0.03528 -0.0353,0.07056 -0.0353,0.105834 h -0.10583 c -0.10583,0 -0.0706,-0.03528 0.0706,-0.105834 z m 0.21167,-0.105833 c 0.0353,-0.03528 0.0706,-0.07056 0.10583,-0.07056 h 0.0706 v -0.03528 c 0.0705,0 0.0705,0.03528 0,0.105833 -0.0353,0 -0.0706,0 -0.10584,0.03528 h -0.14111 c 0,-0.03528 0.0353,-0.03528 0.0706,-0.03528 z m 0.10583,-0.529167 c 0.14111,0 0.17639,0.03528 0.17639,0.105833 -0.0353,0.07056 -0.0706,0.07056 -0.10583,0.07056 V 35.3816 c 0,-0.07055 0,-0.105833 -0.0706,-0.105833 z m 0.81139,1.975557 c -0.0706,0.211667 -0.10583,0.246944 -0.10583,0.03528 V 37.18077 Z m 0.81139,-3.175002 c 0,0.07056 -0.0353,0.141111 -0.10583,0.141111 -0.0353,0 -0.0353,0 -0.0706,-0.03528 -0.0353,-0.03528 -0.0353,-0.07055 0,-0.141111 0.0353,-0.07056 0.10583,-0.03528 0.17639,0.03528 z m 0.17639,-0.176389 c 0.21167,-0.211667 0.24694,-0.176389 0.17639,0.07056 0,0.03528 -0.0353,0.03528 -0.10584,0.03528 -0.10583,0 -0.14111,-0.03528 -0.0706,-0.105833 z m -6.91445,-14.463899 c -0.14111,0 -0.21167,-0.03528 -0.10583,-0.07056 0.0705,0 0.14111,0 0.17639,0.03528 0.0705,0 0.14111,0.03528 0.21166,0.03528 0,0.03528 -0.10583,0.03528 -0.28222,0 z m 2.61056,0.564445 c -0.17639,0.03528 -0.35278,0.03528 -0.49389,0.03528 -0.17639,-0.03528 -0.35278,-0.03528 -0.49389,-0.03528 -0.24695,0 -0.35278,0 -0.28222,-0.07056 0,-0.03528 0.0353,-0.03528 0.10583,-0.03528 h 2.82222 c 0.0353,0.03528 0.0706,0.03528 0.10584,0.03528 h 0.0705 c -0.14111,0.105834 -0.3175,0.141112 -0.49389,0.141112 -0.24694,0 -0.70555,-0.03528 -1.34055,-0.07056 z m 0.74083,1.799168 h -0.24694 v -0.07056 h 0.24694 z m 3.21028,1.658056 c -0.0353,0.105834 -0.0705,0.211667 -0.10583,0.282223 -0.10584,0.176389 -0.21167,0.352778 -0.35278,0.529167 -0.14111,0.176389 -0.24695,0.388056 -0.28222,0.635 0,0.105834 0.0705,0.07056 0.17639,-0.105833 0.0705,-0.282222 0.10583,-0.388056 0.10583,-0.282222 -0.0353,0.176389 -0.0706,0.388055 -0.17639,0.564444 l -1.41111,2.57528 c -0.28222,0.352778 -0.35278,0.529167 -0.24695,0.529167 v 0.07055 c 0,0.03528 0,0.07056 -0.0353,0.07056 0,0.03528 -0.0353,0.03528 -0.0706,0.03528 0,0.03528 -0.0353,0.07055 -0.0353,0.07055 -0.0353,0 -0.0353,-0.03528 -0.0353,-0.07055 -0.0353,0.141111 -0.10583,0.246944 -0.17638,0.246944 -0.0706,0 -0.0353,0.03528 0.0705,0.176389 -0.0353,0 -0.10583,0 -0.10583,0.03528 h -0.24695 c 0,0.07056 0,0.105834 -0.0353,0.105834 0,0 -0.0353,0.03528 -0.0353,0.07055 0.0353,0.07056 0.0705,0.105834 0.0705,0.176389 0,0.03528 -0.0353,0.03528 -0.0705,-0.07055 -0.0706,0 -0.10584,0.03528 -0.10584,0.07055 0,0.03528 -0.0353,0.105834 -0.10583,0.176389 l -0.0705,0.176389 c 0.0353,0.07056 0.0705,0.105834 0.0705,0.03528 v -0.03528 h 0.10583 c 0,0.141112 -0.0705,0.211667 -0.21166,0.176389 -0.10584,-0.141111 -0.14111,-0.105833 -0.14111,0.03528 v 0.176389 c 0.0705,0 0,0.246945 -0.28223,0.776112 l -0.21166,0.3175 c -0.0353,0.07056 -0.10584,0.176389 -0.14111,0.246945 -0.0706,0.07056 -0.10584,0.176389 -0.10584,0.282222 -0.0353,0.03528 -0.0705,0.07056 -0.0705,0.105833 l -0.0353,0.141112 c -0.0706,0.07055 -0.14111,0.07055 -0.14111,0 0.0353,-0.105834 0.10583,-0.246945 0.17639,-0.352778 0.3175,-0.529167 0.52916,-0.881945 0.59972,-1.023057 0.0353,-0.07056 0.0706,-0.141111 0.10583,-0.246944 v -0.105834 c 0.0706,0 0.10584,-0.03528 0.0706,-0.07056 -0.0706,-0.03528 -0.10583,-0.07056 -0.17639,-0.07056 h -0.0706 c 0.10584,0 0.17639,-0.07055 0.17639,-0.282222 0.10584,-0.105834 0.17639,-0.246945 0.24695,-0.352778 0.10583,-0.176389 0.28222,-0.49389 0.56444,-0.952501 l 0.45861,-1.058334 c 0.10584,-0.141111 0.17639,-0.211667 0.21167,-0.211667 0,0 0.0353,0.03528 0.0706,0.105834 0.0705,0.03528 0.10583,-0.03528 0.10583,-0.176389 -0.0353,-0.07056 -0.0353,-0.141112 0,-0.141112 v 0.07056 c 0.17639,0 0.21167,-0.07056 0.14111,-0.282222 0.0706,-0.141112 0.14111,-0.282223 0.17639,-0.423334 0.0706,-0.141111 0.24694,-0.458611 0.56444,-1.023056 0,-0.07056 0.0353,-0.141111 0.0706,-0.211667 0.0706,-0.07056 0.10583,-0.176389 0.17639,-0.246945 0,-0.105833 0.0353,-0.176389 0.10583,-0.282222 0.0706,-0.141111 0.17639,-0.282223 0.28223,-0.388056 0.0705,-0.141111 0.14111,-0.246945 0.21166,-0.388056 0.0706,-0.07056 0.10584,-0.176389 0.14111,-0.246944 0,-0.105834 0,-0.141112 0.0353,-0.176389 0.0353,0 0.0706,0 0.0706,0.03528 v 0.07056 c 0,0.07056 -0.0353,0.105833 -0.0706,0.105833 z m 1.44639,-0.846667 c 0,0.07056 0,0.105834 -0.0353,0.141111 -0.0353,0 -0.0705,0.03528 -0.0705,0.07056 -0.0353,0.03528 -0.0706,0 -0.0706,-0.105833 0.0353,-0.07056 0.0706,-0.105834 0.14111,-0.141112 0.0353,-0.03528 0.0353,-0.07055 0.0353,-0.105833 0.0706,-0.07056 0.0706,-0.03528 0,0.141111 z m 6.17362,-1.905001 c 0.0705,-0.211667 0.14111,-0.423334 0.17639,-0.599723 0.0353,-0.141111 0.10583,-0.282222 0.17638,-0.388055 0.0706,-0.07056 0.0706,-0.211667 0,-0.423334 -0.0353,-0.105834 -0.17638,-0.176389 -0.35277,-0.246945 -0.24695,-0.07055 -0.49389,-0.105833 -0.70556,-0.141111 l -0.74083,-0.105833 h -0.56445 l -0.74083,-0.07056 0.28222,-0.740834 c 0.17639,-0.3175 0.3175,-0.599722 0.45861,-0.917223 l 0.56445,-1.27 c 0.3175,-0.740834 0.49389,-1.199446 0.56444,-1.375835 0.0706,-0.176389 0.0353,-0.282222 -0.0353,-0.352778 -0.17639,-0.105833 -0.3175,-0.07055 -0.35277,0.03528 -0.10584,0.07056 -0.14112,0.07056 -0.10584,-0.03528 0.0706,-0.458611 0.0706,-0.670278 -0.0705,-0.635 -0.0353,0.03528 -0.0353,0.03528 -0.0353,0 0,0 0,-0.03528 0.0353,-0.07056 0.0353,-0.03528 0,-0.07056 0,-0.07056 -0.0353,-0.03528 -0.0706,-0.03528 -0.10584,-0.03528 -0.0353,0 -0.0705,0 -0.0705,-0.03528 -0.0353,-0.03528 -0.0353,-0.07056 -0.0353,-0.105833 0.0706,-0.07056 0.0706,-0.105834 0,-0.141112 -0.10583,0 -0.17639,0.03528 -0.24695,0.105834 -0.24694,0.211667 -0.38805,0.352778 -0.42333,0.352778 0,0 0,-0.03528 0.0706,-0.141111 0.0353,-0.03528 0.0705,-0.105834 0.10583,-0.176389 0.0353,-0.105834 0.0706,-0.141112 0.14111,-0.211667 0.0706,-0.141111 0.10583,-0.246945 0.0706,-0.282223 0,-0.03528 -0.0353,-0.03528 -0.14111,0.03528 -0.0706,0.105834 -0.21167,0.105834 -0.3175,0.07056 -0.17639,-0.03528 -0.21167,-0.141111 -0.14112,-0.282223 0.0353,-0.246944 0,-0.246944 -0.17638,0 l -0.17639,0.176389 0.14111,-0.246944 c 0,-0.105834 -0.0353,-0.176389 -0.0706,-0.176389 -0.0705,0 -0.17639,-0.03528 -0.21166,-0.105834 -0.0706,-0.07055 -0.21167,0 -0.49389,0.176389 -0.28223,0.282223 -0.52917,0.564445 -0.74084,0.881945 -0.3175,0.458612 -0.635,0.952501 -0.98778,1.516946 -0.38805,0.564445 -0.74083,1.12889 -1.12889,1.728612 -0.38805,0.599723 -0.74083,1.093612 -1.05833,1.516946 -0.42333,0.599722 -0.70556,0.881945 -0.91722,0.881945 -0.52917,0.07055 -1.05834,0.105833 -1.62278,0.141111 -0.56445,0 -1.05834,0.03528 -1.41111,0.03528 0.17639,0.03528 0.35277,0.07055 0.52916,0.07055 0.17639,0.03528 0.3175,0.03528 0.49389,0.03528 h -3.63361 c -0.52917,-0.03528 -0.88195,-0.07056 -0.98778,-0.07056 -0.10583,0 -0.21167,0.03528 -0.28222,0.141112 0,0.03528 0,0.07056 0.0353,0.141111 0,0.03528 0.0706,0.07055 0.14111,0 0.10583,0 0.14111,0.07055 0.0705,0.141111 0,0.07056 0.0353,0.07056 0.10584,0 0.0353,-0.07056 0.14111,-0.105833 0.21166,-0.07056 0.0353,0.03528 0.0706,0.141112 0.0353,0.282223 0,0.141111 -0.0353,0.282222 -0.0353,0.423334 0.10584,-0.246945 0.21167,-0.352778 0.35278,-0.352778 l 0.21167,0.105833 c 0.0705,0.03528 0.14111,0.07056 0.21166,0.07056 0.0353,0 0.10584,0 0.17639,0.03528 h 0.10584 c 0.10583,0 0.17639,0.03528 0.17639,0.141112 0.35277,0 0.77611,0.105833 1.12889,0.176389 0.3175,0 0.59972,0.07056 0.84666,0.211666 0.10584,0.07056 0.10584,0.105834 -0.0353,0.07056 -0.98777,0 -2.01083,-0.105833 -2.99861,-0.282222 -0.0705,0 -0.0705,0 0,0.03528 0.0353,0.03528 0.0353,0.07056 -0.0353,0.07056 -0.17638,0 -0.14111,0.03528 0.0353,0.176389 0.17639,0.07056 0.21167,0.105833 0.14111,0.105833 -0.10583,-0.03528 -0.10583,-0.03528 0,0.07056 0.0706,0.211667 0.24695,0.388056 0.45861,0.493889 0.24695,0.141111 0.56445,0.282223 0.84667,0.352778 l 1.86973,0.246945 c 0.10583,0.03528 0.24694,0.03528 0.35277,0.03528 h 0.21167 c 0.14111,0.07056 0.24694,0.105833 0.38806,0.141111 0.0705,0 0.10583,-0.03528 0.14111,-0.07056 l -3.42195,5.715004 c -0.17639,0.3175 -0.42333,0.705556 -0.70556,1.199445 -0.24694,0.49389 -0.52916,1.023057 -0.81139,1.587501 -0.28222,0.564445 -0.56444,1.093612 -0.81138,1.587501 -0.24695,0.49389 -0.45862,0.917223 -0.59973,1.270001 -0.56444,1.270001 -0.88194,2.081391 -0.9525,2.398891 -0.0353,0.176389 -0.10583,0.352778 -0.21166,0.529167 -0.0353,0.176389 -0.0353,0.3175 -0.0706,0.458611 0.0353,0.211667 0.0353,0.388056 0.0706,0.599723 0.0353,0.423333 0.0705,0.705556 0.0705,0.881945 0.0353,0.176389 0.0706,0.3175 0.0706,0.423334 0,0.07055 0.0353,0.105833 0.0705,0.176389 0,0.105833 0.0353,0.211666 0.0353,0.282222 0.0706,-0.03528 0.17639,0.105833 0.3175,0.423334 0.17639,0.3175 0.3175,0.458611 0.45861,0.458611 0.10583,0 0.14111,0.07056 0.14111,0.176389 -0.0353,0.105833 0.0706,0.282222 0.3175,0.493889 0.17639,0.176389 0.38806,0.282223 0.67028,0.3175 0.14111,0 0.21167,0.03528 0.21167,0.105834 0.0706,0.07055 0.14111,0.105833 0.17639,0.105833 0.14111,0.03528 0.3175,0.105834 0.38805,0.246945 0.10584,0.141111 0.24695,0.141111 0.49389,0 0.0706,-0.07056 0.10584,-0.105834 0.10584,-0.07056 0,0.03528 0,0.07056 0.0353,0.105834 v -0.03528 c 0.0706,0 0.14111,0 0.17639,0.03528 0.10584,0.07055 0.10584,0.07055 0.0706,0 0,0 0,-0.03528 0.0353,-0.07056 0,-0.03528 0.0353,-0.03528 0.0705,-0.03528 0.38806,0 1.55222,-0.670278 3.45723,-2.08139 0.38805,-0.246945 3.91583,-2.610557 3.91583,-2.857502 0,-0.03528 0.0706,-0.07056 0.14111,-0.07056 0.0353,0 0.14111,-0.07055 0.28223,-0.246944 l 0.98777,-0.740834 c 0.28223,-0.176389 0.49389,-0.3175 0.52917,-0.352778 0.0706,-0.03528 0.10583,-0.105833 0.10583,-0.176389 0.0706,-0.03528 0.0353,-0.03528 -0.0705,0 -0.14111,0.105833 -0.24695,0.176389 -0.38806,0.282222 -0.14111,0.141112 -0.35278,0.246945 -0.56444,0.388056 -0.21167,0.141111 -0.38806,0.282223 -0.56445,0.388056 -0.17639,0.105833 -0.28222,0.176389 -0.28222,0.211667 -0.0705,0.105833 -0.10583,0.105833 -0.17639,0 0,0 0,0.03528 -0.0353,0.03528 v 0.03528 c 0,0.105834 -0.0353,0.176389 -0.10583,0.176389 h -0.24694 c -0.0353,0 -0.0706,0 -0.0706,0.03528 -0.0353,0 -0.0353,0.03528 -0.0353,0.07056 0.0706,0.03528 0.0706,0.105833 0,0.176389 v -0.03528 c 0.0353,-0.03528 0.0353,-0.07056 0,-0.105833 -0.0353,0 -0.0705,0 -0.0705,0.03528 -0.0353,0 -0.0706,0.03528 -0.0706,0.105834 0,0.03528 -0.0353,0.105833 -0.10583,0.141111 0.10583,-0.211667 -0.0706,-0.141111 -0.56445,0.211667 -0.3175,0.246944 -0.42333,0.352778 -0.35277,0.352778 0.14111,0 0.42333,-0.211667 0.42333,-0.352778 h 0.0353 c 0.0353,0 0.10583,-0.03528 0.10583,-0.07056 0.17639,-0.07055 0.24694,-0.07055 0.24694,-0.03528 -0.3175,0.211667 -0.56444,0.423334 -0.77611,0.564445 -0.21166,0.176389 -0.42333,0.3175 -0.635,0.423334 -0.17639,0.105833 -0.3175,0.211667 -0.42333,0.3175 l -0.3175,0.176389 0.24694,-0.211667 c 0,-0.07055 0.0706,-0.176389 0.21167,-0.246944 0.10583,-0.07056 0.24694,-0.141112 0.35278,-0.211667 0.3175,-0.176389 0.45861,-0.282223 0.45861,-0.352778 -0.0353,-0.105834 -0.0706,-0.176389 -0.0353,-0.282223 l 0.10584,-0.07055 c 0,0.07055 0.0705,0.03528 0.24694,-0.105834 0.10583,-0.105833 0.24694,-0.176389 0.38806,-0.246944 0.17638,-0.105834 0.35277,-0.246945 0.52916,-0.388056 0.0706,-0.07056 0.10584,-0.141111 0.10584,-0.176389 0.0353,-0.07056 0.14111,-0.105833 0.28222,-0.105833 0.17639,0.07055 0.21167,0.03528 0.10583,-0.07056 v -0.105833 c 0,-0.03528 0.0353,-0.07056 0.0706,-0.07056 0.0705,0 0.10583,0.03528 0.0705,0.07056 v 0.03528 h 0.0353 c 0.0353,0 0.0706,-0.03528 0.0706,-0.105833 -0.0706,-0.07056 -0.0706,-0.105833 0.0705,-0.105833 0.0706,0 0.0706,-0.03528 0.0353,-0.07056 0,-0.07056 0.24694,-0.246945 0.74083,-0.529167 0.3175,-0.211667 0.59973,-0.423334 0.81139,-0.599723 0.21167,-0.176389 0.24695,-0.282222 0.17639,-0.3175 -0.0353,-0.03528 -0.0705,-0.03528 -0.10583,-0.03528 -0.0353,0 -0.0706,0 -0.10583,0.03528 -0.14112,0.07056 -0.14112,0.07056 -0.0706,-0.03528 0.14111,-0.141111 0.14111,-0.141111 0,-0.07056 -0.10583,0.03528 -0.17639,0.03528 -0.21167,-0.07056 -0.0705,-0.03528 -0.14111,0 -0.3175,0.07056 l -0.10583,0.07056 h -0.0353 l -0.0353,0.03528 c -0.0706,-0.03528 -0.0353,-0.141111 0.0706,-0.282222 0.0706,-0.105834 0.17639,-0.211667 0.28222,-0.282223 l 0.14111,-0.105833 c 0,-0.03528 -0.0705,-0.07056 -0.14111,-0.07056 -0.0705,0.03528 -0.10583,0.03528 -0.10583,0 -0.10584,-0.176389 -0.3175,-0.176389 -0.635,0.07056 h -0.17639 c 0,-0.105834 -0.0706,-0.141111 -0.17639,-0.141111 -0.10583,-0.03528 -0.21167,-0.03528 -0.35278,0 -0.0353,0.07055 -0.0353,0.176389 0,0.246944 0.10584,0.07056 0.10584,0.141111 0.0353,0.211667 -0.0706,0.03528 -0.17639,0.07056 -0.24694,0.07056 -0.10584,0 -0.17639,0 -0.24695,0.07056 -0.0353,0.105834 -0.10583,0.07056 -0.21167,-0.07056 -0.0353,-0.07056 -0.14111,-0.105834 -0.24694,-0.07056 -0.17639,0.141111 -0.35278,0.246945 -0.52917,0.3175 -0.17639,0.07056 -0.3175,0.105834 -0.49389,0.176389 0,-0.07056 0.0706,-0.105833 0.21167,-0.176389 0.17639,-0.03528 0.35278,-0.105833 0.45861,-0.246944 0.0706,-0.03528 0.10583,-0.07056 0.17639,-0.07056 0,0.07056 0.0353,0.07056 0.0353,0.03528 0.0353,0 0.0353,-0.03528 0.0353,-0.07056 v -0.03528 c 0.0353,-0.03528 0.0353,-0.03528 0.0705,-0.03528 h 0.0353 c 0.0706,0 0.14111,0 0.17639,-0.03528 0.14111,-0.105834 0.24694,-0.105834 0.28222,0 0.0706,0.07055 0.17639,0.105833 0.28222,0.07055 0.14111,-0.03528 0.14111,-0.07055 0.0706,-0.141111 h -0.17639 c -0.0706,0 -0.10583,-0.03528 -0.10583,-0.07055 l 0.10583,-0.105834 c 0.0706,-0.07055 0.17639,-0.141111 0.28222,-0.176389 0.3175,-0.07055 0.52917,-0.141111 0.635,-0.176389 0.14111,-0.03528 0.14111,0 0,0.07056 l -0.0353,0.03528 c 0.0706,0.03528 0.14112,0 0.21167,-0.03528 0.0353,-0.03528 0,-0.07056 -0.10583,-0.141111 -0.10584,-0.07056 -0.38806,0 -0.81139,0.176389 -0.17639,0.141111 -0.3175,0.211666 -0.52917,0.3175 -0.0353,0 -0.10583,0 -0.17639,0.03528 l -0.3175,0.176389 c -0.24694,0.105833 -0.70555,0.388056 -1.37583,0.846667 -0.67028,0.458611 -1.41111,0.811389 -2.15195,1.12889 l -0.74083,0.352778 v -0.352778 c 0.0705,0 0.10583,-0.07056 0.14111,-0.176389 0.0353,-0.176389 0.0705,-0.317501 0.14111,-0.458612 l 1.27,-3.351391 c 0.0706,-0.07056 0.14111,-0.176389 0.17639,-0.282222 0.0706,-0.105834 0.10583,-0.211667 0.17639,-0.282223 0.0353,-0.07056 0.0353,-0.176389 0.0706,-0.246944 0.0353,-0.07056 0.0705,-0.176389 0.14111,-0.211667 l 0.10583,-0.246945 v -0.07055 c 0.17639,0 0.21167,-0.07056 0.14111,-0.282223 l 0.3175,-0.493889 c 0.0706,-0.141111 0.10583,-0.246945 0.17639,-0.388056 0.0353,-0.105833 0.10583,-0.211667 0.17639,-0.3175 1.09361,-2.222502 2.29306,-4.33917 3.73945,-6.350004 0.17639,-0.07056 0.38805,-0.141112 0.56444,-0.176389 0.3175,-0.07056 0.70556,-0.141112 1.16417,-0.211667 0.42333,-0.03528 0.84667,-0.105834 1.27,-0.141111 0.38806,-0.03528 0.70556,-0.03528 0.9525,-0.03528 0.28222,0.03528 0.59972,-0.03528 0.84667,-0.176389 0.0353,-0.03528 0.0353,-0.07056 -0.0353,-0.07056 0.0705,-0.3175 0.14111,-0.599722 0.21167,-0.846667 z m -13.08807,7.020282 c -0.10583,0.105834 -0.14111,0.176389 -0.10583,0.176389 v -0.03528 c 0.0353,-0.03528 0.0353,-0.03528 0.0353,-0.03528 l 0.14111,-0.03528 c 0.0353,-0.07056 0,-0.105833 -0.0706,-0.07056 z m 1.37584,-8.81945 0.0705,0.07056 c -0.0353,0 -0.10583,-0.03528 -0.10583,-0.07056 z m 0.28222,18.026957 c 0,0 0,0.03528 -0.0353,0.07055 -0.0353,0.03528 -0.0353,0.03528 0.0353,0 0.0705,0 0.10583,0 0.14111,-0.03528 -0.10583,-0.03528 -0.14111,-0.07055 -0.14111,-0.03528 z m 1.05833,-8.219728 c 0.0353,0.03528 0.0353,0.03528 0,0.03528 -0.10583,-0.105834 -0.10583,-0.105834 0,-0.03528 z m 1.62278,6.914449 c 0.0353,0 0.0706,0 0.10583,-0.07056 0,-0.03528 -0.0353,0 -0.10583,0.07056 z m 7.16142,-3.069169 c -0.17639,0.282223 -0.38805,0.493889 -0.635,0.705556 -0.0705,0.03528 -0.0705,-0.03528 0.0353,-0.246944 l 0.52917,-0.846668 c 0.28222,-0.388055 0.59972,-0.811389 0.98777,-1.27 l 0.35278,-0.388056 z m 3.28084,5.432782 c -0.0353,0 0.10583,-0.105834 0.45861,-0.282223 0.3175,-0.211667 0.70555,-0.423333 1.12889,-0.635 l 1.12889,-0.564445 c 0.14111,-0.141111 0.3175,-0.211667 0.45861,-0.246945 -0.56445,0.49389 -1.19945,0.917223 -1.905,1.199446 l -0.84667,0.423333 z m 0.91722,-11.006674 c -0.70556,0.776111 -1.19944,1.305278 -1.41111,1.587501 -0.24695,0.282222 -0.3175,0.352778 -0.17639,0.246944 l -0.28222,0.529167 c -0.21167,0.211667 -0.38806,0.388056 -0.635,0.529167 -0.0706,0.07056 -0.10584,0.03528 -0.0706,-0.07055 l 2.11667,-2.610558 c 0,0.105834 0.0353,0.105834 0.14111,0 l 0.635,-0.564444 0.635,-0.635001 -0.3175,0.423334 c -0.21167,0.176389 -0.38806,0.388056 -0.635,0.564445 z m 6.77334,1.023056 c 0,2.434168 -2.29306,5.044725 -3.98639,6.632227 l -0.52917,0.529167 c -0.14111,0.07055 -0.3175,0.141111 -0.45861,0.246944 -0.10584,0.105834 -0.21167,0.176389 -0.28222,0.282223 -0.10584,0.141111 -0.24695,0.246944 -0.42334,0.3175 -0.21166,0.141111 -0.45861,0.246944 -0.67028,0.352778 v -0.03528 l -0.52916,0.282222 h 0.0705 l -0.17639,0.03528 -1.62278,0.776112 c -0.0705,0.03528 -0.14111,0.03528 -0.21166,0.03528 -0.24695,0.176389 -0.45861,0.282222 -0.635,0.282222 -0.14111,0 -0.28223,-0.07056 -0.38806,-0.176389 -0.24694,-0.246945 -0.24694,-0.811389 0.0353,-1.658057 0.52917,-2.645835 2.92806,-6.632226 5.25639,-8.255005 0.81139,-0.670278 1.94028,-1.093612 2.96334,-1.093612 0.45861,0 0.91722,0.07056 1.34055,0.246945 0.14111,0.388055 0.21167,0.776111 0.24695,1.199445 z m 3.28083,-0.03528 c -0.10583,-0.282222 -0.24694,-0.529167 -0.49389,-0.705556 -0.14111,-0.105833 -0.28222,-0.211667 -0.42333,-0.352778 l -0.70556,-0.670278 c -0.10583,-0.141111 -0.21166,-0.282223 -0.35277,-0.352778 l -0.74084,-0.635001 h 0.10584 c -0.45861,-0.352778 -0.9525,-0.670278 -1.44639,-0.917223 -0.45861,-0.282222 -0.9525,-0.493889 -1.48167,-0.635 -0.21167,-0.07056 -0.38806,-0.105833 -0.59972,-0.141111 -0.17639,0.03528 -0.3175,0.105833 -0.42334,0.176389 v -0.03528 c -4.93889,1.093612 -9.13695,4.903614 -10.75973,9.666118 l -0.14111,0.811389 -0.0705,0.105834 c 0,0.176389 -0.0353,0.3175 -0.10584,0.458611 0.0353,0.141111 0.0706,0.246945 0.0706,0.352778 0,0.141111 -0.0353,0.282222 -0.14111,0.352778 -0.0353,0.176389 -0.0706,0.388056 -0.0353,0.564445 0.0353,0.352778 0.0706,0.670278 0.14111,0.987778 l -0.0353,0.282223 c 0.0706,0.105833 0.14111,0.176389 0.17639,0.282222 0.0706,0.07056 0.10584,0.176389 0.10584,0.246945 0.17638,0.388055 0.42333,0.740834 0.70555,1.058334 l 1.05834,0.9525 c 0.70555,0.529167 1.48166,0.917223 2.32833,1.234723 l 0.28222,0.211667 c 0.10584,0.105834 0.24695,0.141111 0.38806,0.176389 0.21167,0.03528 0.38805,0.07056 0.59972,0.105834 0.0353,0.03528 0.10583,0.03528 0.14111,0.03528 0.0706,0.03528 0.14111,0.03528 0.21167,0.03528 0.0705,0.03528 0.14111,0.07056 0.21167,0.07056 0.24694,0.03528 0.49389,0.03528 0.74083,-0.03528 0.3175,-0.03528 0.635,-0.105833 0.9525,-0.211667 l 0.38806,-0.03528 c 0.10583,-0.141111 0.24694,-0.176389 0.38805,-0.176389 0.10584,-0.03528 0.21167,-0.105833 0.38806,-0.176389 0.10583,-0.07055 0.24694,-0.105833 0.38805,-0.141111 1.44639,-0.388056 4.12751,-2.39889 5.22112,-3.633613 l 0.24694,-0.282223 v -0.211667 c 1.72862,-1.869723 2.57528,-3.810002 3.06917,-6.279448 0.0706,-0.423334 0.0353,-0.881945 -0.0353,-1.270001 -0.0705,-0.423334 -0.17639,-0.846667 -0.3175,-1.234723 z"
       id="text4"
       aria-label="Memento" />
  </g>
</svg>
